<?xml version="1.0" encoding="UTF-8" standalone="no"?>
<svg
   height="112"
   width="112"
   id="svg14"
   xml:space="preserve"
   enable-background="new 0 0 1000 1000"
   viewBox="0 0 112 112"
   y="0px"
   x="0px"
   version="1.1"
   sodipodi:docname="icon-112-112.svg"
   inkscape:version="1.1 (c4e8f9e, 2021-05-24)"
   xmlns:inkscape="http://www.inkscape.org/namespaces/inkscape"
   xmlns:sodipodi="http://sodipodi.sourceforge.net/DTD/sodipodi-0.dtd"
   xmlns="http://www.w3.org/2000/svg"
   xmlns:svg="http://www.w3.org/2000/svg"
   xmlns:rdf="http://www.w3.org/1999/02/22-rdf-syntax-ns#"
   xmlns:cc="http://creativecommons.org/ns#"
   xmlns:dc="http://purl.org/dc/elements/1.1/"><sodipodi:namedview
   pagecolor="#ffffff"
   bordercolor="#666666"
   borderopacity="1"
   objecttolerance="10"
   gridtolerance="10"
   guidetolerance="10"
   inkscape:pageopacity="0"
   inkscape:pageshadow="2"
   inkscape:window-width="1848"
   inkscape:window-height="1016"
   id="namedview10"
   showgrid="false"
   inkscape:zoom="2.5189401"
   inkscape:cx="40.691718"
   inkscape:cy="100.24057"
   inkscape:window-x="72"
   inkscape:window-y="27"
   inkscape:window-maximized="1"
   inkscape:current-layer="svg14"
   inkscape:pagecheckerboard="0" /><defs
   id="defs18" />
<metadata
   id="metadata2"> Svg Vector Icons : http://www.onlinewebfonts.com/icon <rdf:RDF><cc:Work
     rdf:about=""><dc:format>image/svg+xml</dc:format><dc:type
       rdf:resource="http://purl.org/dc/dcmitype/StillImage" /></cc:Work></rdf:RDF></metadata>

<rect
   style="fill:#000000;stroke-width:0"
   id="rect1833"
   width="104.71604"
   height="101.97987"
   x="3.6419792"
   y="5.0100632"
   ry="2.41682" /><path
   d="m 53.653442,10.480118 c -0.213468,0.0142 -0.839652,0.05688 -1.387567,0.09963 -8.126154,0.626183 -16.017486,3.500937 -22.770306,8.289813 -9.620462,6.823973 -16.259424,17.077739 -18.315871,28.284999 -0.512333,2.77513 -0.675991,4.675023 -0.683108,7.684978 0,2.575896 0.05688,3.472472 0.3629,5.763741 1.074473,8.005178 4.518484,15.718617 9.862396,22.101421 7.45016,8.880418 17.981426,14.580092 29.302531,15.86097 3.444015,0.384196 7.67787,0.313028 11.13612,-0.185011 18.358552,-2.654195 33.429657,-16.906976 36.923504,-34.902633 0.490973,-2.533197 0.711523,-4.973886 0.704378,-7.855759 0,-2.867642 -0.227693,-5.201593 -0.740013,-7.791718 C 96.632399,40.743287 93.558415,34.388941 88.762415,28.618093 87.77333,27.422656 84.692223,24.348669 83.503893,23.359579 78.622513,19.296499 73.356872,16.4858 67.457936,14.778027 c -2.462028,-0.71158 -5.109081,-1.209679 -8.005172,-1.508545 -1.423151,-0.142308 -6.297417,-0.120967 -7.756147,0.03558 -5.450633,0.590599 -10.111436,1.942596 -14.836272,4.290779 -4.31925,2.148944 -7.919798,4.746183 -11.356698,8.175962 -4.774642,4.767535 -8.16885,10.218175 -10.239522,16.437319 -1.423148,4.283661 -2.04933,8.133276 -2.04933,12.630408 0,2.789365 0.163666,4.653684 0.633299,7.258031 1.515645,8.339633 5.884697,16.344819 12.210575,22.364713 9.670273,9.207745 22.777428,13.292171 35.649768,11.114759 6.816877,-1.152749 13.363328,-4.077311 18.842436,-8.417889 2.988594,-2.369546 5.870466,-5.393725 8.055001,-8.446369 4.070178,-5.706807 6.510877,-12.046913 7.279377,-18.927813 0.16366,-1.430264 0.227695,-5.443533 0.106738,-6.852447 C 95.728709,49.67352 95.152329,46.727611 94.198831,43.82439 91.153306,34.481456 84.742033,26.5403 76.103546,21.40275 75.114462,20.812152 72.66665,19.5669 71.585057,19.097255 63.757768,15.717297 55.112164,14.920331 46.893514,16.813112 30.94006,20.499055 18.615635,33.677368 16.295899,49.509861 c -0.291746,1.999512 -0.377133,3.493822 -0.334431,6.005673 0.03553,2.29125 0.106732,3.280334 0.370015,4.980995 0.974855,6.240487 3.479585,12.118073 7.322076,17.220045 1.159862,1.536999 2.042207,2.540318 3.664602,4.169821 1.579689,1.57257 2.583001,2.462033 4.063075,3.593431 7.983843,6.083947 17.981428,8.873302 27.822472,7.741904 11.342463,-1.295069 21.653134,-7.649398 28.000364,-17.2485 3.394195,-5.137562 5.379483,-10.716285 6.027018,-16.935422 0.120965,-1.195448 0.120965,-5.436418 0,-6.617621 -0.490985,-4.632335 -1.672202,-8.780802 -3.643252,-12.75137 -0.305981,-0.611954 -0.647538,-1.2666 -0.754265,-1.45872 -1.344879,-2.362425 -2.61858,-4.212512 -4.1627,-6.069716 C 83.717368,30.994749 81.63246,28.874265 80.472603,27.863829 72.132981,20.620015 61.438039,17.375262 50.735993,18.84109 37.479412,20.655604 25.973285,29.664107 21.077671,42.066813 c -1.295057,3.287458 -2.077796,6.767045 -2.369544,10.502797 -0.156541,2.063571 -0.01415,5.407954 0.334442,7.606714 1.537002,9.862387 7.336304,18.835316 15.825365,24.492314 2.262805,1.508529 4.831575,2.832057 7.364772,3.78556 4.376167,1.657961 8.666955,2.398 13.377563,2.298374 1.899897,-0.04268 2.611464,-0.09248 4.127118,-0.305976 6.397035,-0.889465 12.438281,-3.486696 17.504672,-7.528427 2.092028,-1.672199 4.15558,-3.728629 5.84201,-5.842001 C 89.822659,68.64403 92.234895,57.621783 89.587838,47.39649 86.172296,34.225293 75.014846,23.978645 61.594587,21.673152 58.271544,21.103895 54.493098,21.032737 51.234096,21.473915 38.8314,23.160333 28.243204,31.414579 23.632212,42.991858 c -2.04933,5.137543 -2.725317,10.808782 -1.956811,16.366155 0.732907,5.294106 2.967248,10.694943 6.212018,15.014174 2.05644,2.739558 4.461551,5.144663 7.122836,7.108605 3.700177,2.746671 8.111918,4.796002 12.459628,5.777962 2.654163,0.597729 4.632334,0.811206 7.535553,0.811206 3.56498,0 6.624724,-0.47676 10.004697,-1.572586 7.165535,-2.312607 13.427368,-7.065904 17.597193,-13.349089 5.237168,-7.89134 6.681654,-17.447752 3.984794,-26.3851 -0.953508,-3.138035 -2.625702,-6.539346 -4.561174,-9.236195 -2.348182,-3.266123 -5.32257,-6.133766 -8.638488,-8.31829 -4.184037,-2.768012 -8.723883,-4.461561 -13.655071,-5.101976 -2.575893,-0.341549 -6.069715,-0.298862 -8.688304,0.09248 -10.082978,1.522775 -19.091482,8.02653 -23.673994,17.084851 -2.39089,4.724838 -3.536509,9.976236 -3.259009,14.95724 0.227709,4.205389 1.15275,7.848633 2.92457,11.520357 2.127596,4.418867 5.166013,8.154618 9.165042,11.257072 3.465363,2.696861 7.813061,4.731948 12.110952,5.678351 2.362431,0.519442 4.013273,0.697333 6.510898,0.697333 3.586317,0 6.283182,-0.434054 9.56353,-1.515652 5.948742,-1.97816 11.157454,-5.72815 14.950135,-10.787421 3.088212,-4.112893 4.988108,-8.802149 5.664113,-13.94682 0.149422,-1.174095 0.213465,-4.511363 0.106737,-5.735272 C 84.670873,48.52787 83.126766,44.09478 80.429906,39.967655 78.892909,37.626595 76.587417,35.064933 74.452698,33.321581 68.596452,28.546927 61.33131,26.134697 54.158659,26.58299 c -7.33631,0.462521 -13.918347,3.436894 -19.077251,8.624253 -2.355301,2.362419 -4.084418,4.810232 -5.55026,7.841531 -1.472952,3.052637 -2.333954,6.162206 -2.632821,9.513712 -0.09961,1.181214 -0.08538,3.785568 0.03552,4.959661 0.213463,2.11337 0.590601,3.863837 1.238129,5.842015 3.202082,9.670257 11.662667,17.056381 21.638922,18.899357 2.917438,0.540793 6.098164,0.611944 8.894636,0.213469 7.827301,-1.124285 14.836283,-5.5218 19.233803,-12.068268 2.618588,-3.899412 4.127119,-8.218653 4.468668,-12.829651 0.09246,-1.174089 0.04982,-3.650359 -0.07824,-4.731946 -0.583481,-4.909849 -2.618569,-9.727192 -5.728144,-13.555445 -4.048848,-4.98101 -9.577766,-8.339627 -15.725746,-9.563531 -1.629501,-0.327324 -2.689742,-0.441172 -4.554063,-0.483869 -1.84298,-0.04268 -3.27323,0.05691 -4.909854,0.334441 -11.335341,1.921247 -20.279802,11.100527 -21.702945,22.27221 -0.163657,1.266602 -0.213472,3.664602 -0.11385,4.952538 0.412706,4.995239 2.305494,9.691617 5.536027,13.726227 0.754271,0.946393 2.639942,2.85341 3.593444,3.636127 3.991928,3.294591 8.873302,5.329693 13.882771,5.785091 1.110049,0.106736 3.5792,0.106736 4.603865,0.008 7.556911,-0.747149 14.331072,-4.824452 18.529349,-11.136105 2.113368,-3.180726 3.358618,-6.503764 3.856726,-10.317798 0.177882,-1.302173 0.170769,-4.276547 0,-5.550262 -0.369995,-2.739866 -1.003295,-4.881704 -2.141819,-7.272584 -1.188304,-2.483387 -2.703964,-4.610983 -4.731952,-6.64608 -3.223409,-3.230579 -7.037435,-5.393759 -11.406488,-6.461112 -3.429775,-0.846769 -7.2438,-0.882348 -10.687812,-0.113849 -6.283187,1.408905 -11.847678,5.429287 -15.170723,10.958212 -2.960136,4.924077 -3.920759,10.723392 -2.68263,16.245185 1.693549,7.5569 7.40036,13.904118 14.822053,16.480013 5.68546,1.978165 11.840561,1.565466 17.241384,-1.138506 6.311653,-3.159396 10.758979,-9.086789 11.90461,-15.839611 1.1314,-6.710182 -1.102934,-13.491465 -6.069708,-18.401311 -2.775125,-2.732438 -6.354335,-4.739078 -10.040282,-5.607199 -5.009469,-1.188318 -10.118553,-0.533683 -14.665505,1.864331 -0.89658,0.476746 -2.127598,1.273713 -3.095341,2.013742 -0.910807,0.690227 -2.768014,2.533195 -3.51516,3.479592 -3.949228,5.016577 -5.308331,11.193027 -3.771341,17.198696 1.31641,5.137556 4.824464,9.684499 9.556415,12.381351 8.617147,4.916973 19.418809,2.682631 25.410246,-5.265621 1.850095,-2.45493 2.97437,-5.05929 3.529395,-8.183081 0.213476,-1.202571 0.270401,-3.828268 0.106738,-5.087745 -0.3629,-2.760911 -1.316408,-5.379488 -2.803596,-7.68499 -1.423142,-2.212987 -3.621904,-4.376168 -5.884705,-5.799314 -0.832538,-0.52656 -2.583002,-1.380455 -3.486694,-1.707773 -5.578728,-2.013747 -11.641319,-1.245247 -16.508473,2.084911 -1.081584,0.740028 -1.714893,1.2666 -2.632825,2.184524 -2.846289,2.846287 -4.596742,6.411256 -5.08774,10.353377 -0.106736,0.889468 -0.08537,3.059767 0.03552,4.034612 0.5906,4.546937 3.09533,8.766571 6.873777,11.584392 2.447811,1.828749 5.336798,2.967264 8.382329,3.315929 1.067352,0.120963 3.664588,0.04268 4.632333,-0.135202 3.593449,-0.675988 6.574918,-2.234333 9.108122,-4.78176 1.081596,-1.074469 1.835849,-2.042212 2.58301,-3.301696 2.511841,-4.233856 2.881864,-9.414111 1.010434,-13.897013 -2.20588,-5.265629 -7.07304,-9.008504 -12.658878,-9.74142 -1.202561,-0.156544 -3.600558,-0.106739 -4.710602,0.10673 -3.273242,0.619072 -6.105294,2.134717 -8.41079,4.518487 -5.24429,5.415059 -5.642768,13.455829 -0.960617,19.255142 0.562149,0.697337 1.757583,1.850085 2.497621,2.412233 1.892772,1.430258 4.041723,2.369539 6.389908,2.789361 1.038905,0.185013 3.187845,0.220591 4.191168,0.07117 5.457767,-0.811255 9.876634,-4.482967 11.520365,-9.584951 1.850097,-5.756608 -0.640418,-12.082482 -5.984326,-15.234755 -3.379969,-1.985281 -7.492851,-2.333952 -11.086293,-0.93216 -3.842496,1.494301 -6.688784,4.653691 -7.720555,8.567336 -0.38424,1.480065 -0.448293,3.529394 -0.149433,5.0237 0.953505,4.724833 4.568292,8.36097 9.350062,9.392743 0.611946,0.128076 0.960616,0.156548 2.184525,0.156548 1.266598,0.008 1.558338,-0.01419 2.234338,-0.163655 6.183555,-1.316418 10.154127,-7.201116 8.787914,-13.02889 -0.989088,-4.248093 -4.596756,-7.499975 -8.915999,-8.040767 -0.981967,-0.128084 -2.426467,-0.04981 -3.394204,0.170779 -1.956825,0.448288 -3.629013,1.394681 -5.016567,2.83205 -0.782742,0.811205 -1.223911,1.430268 -1.707782,2.376653 -0.675999,1.337761 -0.981973,2.618587 -0.981973,4.120005 0,1.529884 0.277513,2.689753 0.960619,4.048845 0.448297,0.889467 0.868118,1.487196 1.593924,2.241457 1.295057,1.351978 2.746671,2.163178 4.731956,2.654161 0.263288,0.0641 0.846771,0.09249 1.778935,0.09249 1.266589,-0.008 1.444492,-0.02142 2.070667,-0.192124 2.881869,-0.782734 5.101975,-2.810705 6.012783,-5.486224 0.562156,-1.643729 0.519447,-3.721522 -0.106733,-5.279869 -0.590606,-1.465831 -1.657966,-2.803583 -2.924558,-3.664591 -2.625704,-1.778928 -6.126642,-1.722006 -8.617137,0.156551 -3.308819,2.490498 -3.742879,7.065908 -0.953518,9.912196 0.875245,0.889466 1.807401,1.444486 2.953041,1.757581 0.853879,0.2277 2.212989,0.2277 3.009947,0 1.97105,-0.562144 3.465341,-1.93548 4.077302,-3.749981 0.2277,-0.683117 0.305977,-1.807396 0.177891,-2.56878 -0.38424,-2.205872 -2.355299,-3.9848 -4.568284,-4.134234 -2.134722,-0.142303 -4.070204,1.188332 -4.653692,3.202074 -0.163659,0.57638 -0.156537,1.529884 0.02851,2.113382 0.51233,1.615258 1.84297,2.632802 3.451136,2.632802 0.910806,0 1.529869,-0.241923 2.191632,-0.846767 1.416034,-1.295056 1.159869,-3.536513 -0.498101,-4.297891 -0.434052,-0.199248 -1.28083,-0.213465 -1.650851,-0.02132 -0.860993,0.441173 -1.238138,1.359097 -0.860993,2.092012 0.35578,0.690231 1.309293,0.846773 1.700662,0.270398 0.213459,-0.313088 0.199232,-0.377133 -0.106748,-0.426938 -0.47675,-0.08539 -0.505222,-0.106736 -0.483864,-0.327328 0.008,-0.120967 0.07824,-0.284627 0.14943,-0.362896 0.199241,-0.220591 0.74003,-0.156551 1.038896,0.120967 0.611948,0.57637 0.533679,1.437367 -0.192125,2.077788 -1.060239,0.932164 -2.711095,0.498094 -3.394202,-0.896593 -0.213474,-0.426936 -0.234812,-0.533668 -0.234812,-1.117155 0,-0.569257 0.02853,-0.690224 0.220576,-1.102941 0.569257,-1.181207 1.643737,-1.850084 2.974372,-1.850084 1.757583,0 3.237657,1.231017 3.643256,3.038418 0.441173,1.999512 -0.868125,4.10576 -3.031307,4.874266 -0.398474,0.135202 -0.604828,0.16366 -1.458707,0.16366 -0.896588,0 -1.046023,-0.02132 -1.536999,-0.192124 -1.786054,-0.626192 -3.102453,-2.134718 -3.451133,-3.956341 -0.540793,-2.810712 1.35199,-5.628545 4.319243,-6.432618 0.490983,-0.12808 0.7685,-0.156532 1.558338,-0.156532 1.145634,0.008 1.757597,0.149419 2.739557,0.633296 3.18073,1.551218 4.546953,5.450637 3.031297,8.624255 -0.384244,0.804069 -0.789844,1.380444 -1.423137,2.020863 -1.622391,1.643727 -3.970576,2.440683 -6.240496,2.120481 -3.415545,-0.469634 -6.219138,-3.266115 -6.71724,-6.674541 -0.120967,-0.796965 -0.0498,-2.220107 0.135202,-2.945916 0.796966,-3.045532 3.166493,-5.400833 6.247613,-6.204907 2.504729,-0.654647 5.002346,-0.206362 7.279377,1.309287 0.740038,0.490987 1.899897,1.636619 2.397997,2.362428 0.78984,1.152748 1.344872,2.511847 1.558345,3.799793 0.135189,0.846776 0.09962,2.490503 -0.07117,3.273229 -0.391354,1.75047 -1.216774,3.308803 -2.447803,4.603873 -1.266591,1.32352 -2.639925,2.198758 -4.326364,2.753785 -1.956816,0.633296 -4.319242,0.619057 -6.290289,-0.0569 -3.586326,-1.216791 -6.268955,-4.205391 -7.080147,-7.905556 -0.156536,-0.718696 -0.220587,-2.725331 -0.11385,-3.500942 0.256166,-1.771815 0.953508,-3.458236 2.049331,-4.959663 0.220577,-0.29886 0.754271,-0.896574 1.188319,-1.323525 1.558345,-1.5441 3.394199,-2.547429 5.62854,-3.066867 0.789845,-0.185006 0.967739,-0.199248 2.383771,-0.199248 1.508529,-0.008 1.693538,0.01417 2.839166,0.284632 1.05313,0.256164 2.511851,0.882346 3.479597,1.49431 1.665074,1.060235 3.258998,2.789362 4.24097,4.582514 0.583485,1.081589 1.081584,2.632816 1.259471,3.963458 0.120971,0.939273 0.04983,2.988604 -0.142312,3.849609 -0.455399,2.063566 -1.430256,3.991921 -2.846289,5.60719 -1.821622,2.092014 -4.461555,3.600552 -7.279383,4.169811 -0.697333,0.142312 -1.017548,0.16366 -2.369528,0.16366 -1.700665,-0.008 -2.262808,-0.07824 -3.572095,-0.455399 -2.156061,-0.61908 -3.934997,-1.657975 -5.600082,-3.280359 -5.415061,-5.251399 -5.42929,-13.534093 -0.03551,-18.920699 2.141835,-2.148944 4.831582,-3.522283 7.919808,-4.041728 0.889456,-0.149439 3.294576,-0.17078 4.098651,-0.03552 2.689741,0.462533 4.774651,1.330636 6.745705,2.817833 4.006149,3.031296 6.233363,7.820168 5.849116,12.609058 -0.277509,3.508047 -1.700653,6.646084 -4.176917,9.20773 -2.398011,2.490515 -5.308344,4.027515 -8.752353,4.632342 -0.74003,0.135203 -1.188322,0.16367 -2.405108,0.16367 -1.985282,0.008 -3.216303,-0.185007 -5.052163,-0.782737 -0.853883,-0.27751 -2.48339,-1.0389 -3.273229,-1.522765 -2.881871,-1.764696 -5.279872,-4.575412 -6.539352,-7.663632 -2.405108,-5.891815 -1.017548,-12.537899 3.586325,-17.177349 0.490986,-0.490989 1.145632,-1.095828 1.458724,-1.344877 2.490503,-1.963943 5.222941,-3.130914 8.410788,-3.600551 1.067359,-0.156542 3.280345,-0.156542 4.397505,0 3.935001,0.555024 7.364776,2.298378 10.182609,5.173127 2.632812,2.69686 4.297897,6.098175 4.803107,9.812588 0.120967,0.860997 0.120967,3.315912 0,4.198267 -0.569259,4.262319 -2.753785,8.275593 -6.04836,11.107638 -7.307845,6.297431 -17.988547,5.962984 -24.94061,-0.789838 -3.052644,-2.960129 -4.909853,-6.525112 -5.571606,-10.694926 -0.177901,-1.124285 -0.177901,-3.949221 0,-5.101972 0.640407,-4.176923 2.533195,-7.855758 5.571606,-10.830123 3.002838,-2.94592 6.646092,-4.781769 10.844363,-5.471995 1.280818,-0.213477 3.749975,-0.263281 5.087736,-0.10673 2.533192,0.298855 4.610991,0.925033 6.866671,2.077788 6.717243,3.415547 11.036485,10.332028 11.029369,17.675442 0,3.209195 -0.697337,6.062595 -2.184521,8.987163 -1.017545,1.992408 -2.170297,3.564974 -3.821146,5.215823 -3.472468,3.479588 -7.756141,5.543155 -12.673094,6.119521 -1.359112,0.156548 -3.927886,0.106741 -5.322561,-0.113849 -7.926917,-1.23105 -14.580112,-6.795547 -17.191589,-14.39514 -0.3629,-1.046002 -0.675983,-2.319721 -0.868109,-3.508046 -0.213483,-1.33064 -0.263282,-3.963459 -0.09963,-5.365256 0.562139,-4.916959 2.682639,-9.257558 6.261832,-12.850989 2.718211,-2.718213 5.991446,-4.675028 9.641808,-5.749503 3.451127,-1.010434 7.151301,-1.159869 10.730512,-0.42694 5.927389,1.216779 11.242829,4.860034 14.622803,10.026038 1.956821,3.002842 3.159387,6.404145 3.536512,9.997602 0.09249,0.882345 0.09249,3.202067 0,4.134224 -0.768516,7.891272 -5.67124,14.893145 -12.986207,18.550628 C 58.670047,79.695129 50.849866,79.645318 44.047249,76.179968 37.799634,73.006353 33.067685,67.08608 31.4453,60.425758 c -0.469633,-1.935472 -0.647528,-3.472476 -0.654645,-5.514689 -0.01419,-3.237647 0.604836,-6.268954 1.871431,-9.229091 3.038408,-7.080135 9.314478,-12.445392 16.86426,-14.423562 3.152274,-0.825421 6.468192,-1.010429 9.784123,-0.533684 7.414578,1.060241 14.025082,5.393717 18.116621,11.876147 1.700656,2.689734 2.953021,5.984321 3.472477,9.122353 0.419821,2.511848 0.434054,5.351018 0.03551,7.81305 -1.508513,9.442473 -8.375192,17.433436 -17.675436,20.57859 C 57.531484,82.05035 51.390617,81.94362 45.612647,79.808905 43.897761,79.175568 41.563812,77.965894 39.95565,76.877184 31.651632,71.270008 27.090452,61.599739 28.214734,51.957929 29.630767,39.782923 39.535855,29.792455 51.910095,28.049108 c 2.44781,-0.34155 5.329676,-0.34155 7.720556,0.008 6.233361,0.89658 11.911719,3.814024 16.366161,8.396557 4.482908,4.610986 7.179763,10.346249 7.841525,16.679252 0.135205,1.302172 0.113849,4.27654 -0.04268,5.55026 -0.775606,6.446841 -3.572081,12.189231 -8.154611,16.785984 -4.945428,4.959658 -11.150336,7.89134 -18.145086,8.588675 -1.430259,0.142314 -4.575407,0.09962 -5.991441,-0.07112 C 44.70899,83.139706 38.561006,80.087062 33.76501,75.184338 30.513125,71.861293 28.228977,68.13977 26.798718,63.856102 25.710014,60.604223 25.268841,57.615621 25.35423,54.164488 c 0.106731,-4.354818 1.102932,-8.282696 3.102455,-12.239048 1.536991,-3.045521 3.408433,-5.585838 5.927391,-8.040758 7.706335,-7.535546 18.543585,-10.467222 28.91118,-7.820171 3.237656,0.825422 6.517994,2.269907 9.321602,4.120001 6.4326,4.23385 11.1361,10.687813 13.057346,17.917386 1.095823,4.127117 1.287951,8.496174 0.562135,12.680216 -1.067347,6.126487 -3.984798,11.776372 -8.453466,16.358897 -9.641802,9.862148 -24.278847,12.494968 -36.653084,6.574687 -9.798348,-4.682178 -16.743288,-14.01801 -18.209134,-24.463879 -0.263282,-1.914135 -0.313097,-2.746681 -0.270399,-4.924081 0.04268,-2.52608 0.227708,-4.105775 0.732922,-6.318762 0.825422,-3.643245 2.369537,-7.250918 4.475785,-10.460118 5.265636,-8.005181 13.868541,-13.484293 23.232839,-14.793582 3.387072,-0.469632 6.738584,-0.434054 10.033167,0.106732 5.365251,0.88235 10.452983,3.081105 14.871858,6.425504 1.359096,1.031777 2.191637,1.764699 3.600557,3.166497 2.760893,2.760898 4.731946,5.514677 6.432607,8.97292 1.871437,3.821151 2.910323,7.556896 3.273235,11.826331 0.128086,1.472958 0.05691,4.845801 -0.135202,6.318756 -0.974851,7.521317 -4.255196,14.202984 -9.620465,19.603819 -6.966278,7.008981 -16.444426,10.758963 -26.071991,10.317798 -5.045049,-0.227699 -9.378529,-1.337755 -13.875663,-3.557859 -3.700176,-1.821622 -6.54646,-3.863838 -9.499488,-6.823977 -2.768014,-2.768024 -4.774647,-5.51469 -6.475299,-8.866193 -3.650376,-7.17265 -4.646581,-14.950128 -2.917452,-22.734737 1.416033,-6.404148 4.860029,-12.516546 9.762767,-17.333888 6.105294,-6.005674 13.761809,-9.535069 22.364714,-10.317802 1.608163,-0.14231 5.230059,-0.106739 6.75994,0.07117 5.585835,0.661764 10.694933,2.447806 15.377073,5.386597 3.344392,2.099135 6.525123,4.902737 8.965808,7.891341 6.667434,8.183074 9.414102,18.365676 7.67075,28.462889 -2.568776,14.893204 -14.743772,27.0682 -29.914492,29.914485 -2.561661,0.476757 -3.721522,0.576381 -6.86667,0.576381 -2.824946,-0.008 -3.572093,-0.05689 -5.763735,-0.39849 C 38.781605,90.155276 29.331924,84.057109 23.418756,75.24073 20.928252,71.519199 19.085279,67.292467 18.081964,62.966104 16.623241,56.704269 16.907879,49.972797 18.900272,43.810586 20.045905,40.259836 21.967153,36.438692 24.108987,33.457207 29.25365,26.313028 36.5188,21.125658 44.901118,18.628051 c 5.101985,-1.522771 10.374728,-1.93548 15.868063,-1.245261 5.251411,0.654651 10.75185,2.632813 15.476696,5.5645 4.760424,2.953021 9.001392,7.044572 12.125195,11.705359 2.518965,3.757104 4.518476,8.346741 5.479102,12.537897 0.725797,3.180737 0.967744,5.329677 0.960624,8.610032 0,2.291253 -0.0641,3.230527 -0.348677,5.244287 -1.394673,9.741418 -6.610502,18.693006 -14.622801,25.075796 -6.197789,4.938316 -13.605261,7.912679 -21.596212,8.652721 -1.280838,0.120962 -5.443529,0.120962 -6.724366,0 C 42.097528,93.898163 33.565778,89.970277 26.734689,83.374008 20.031679,76.898686 15.74089,68.352715 14.702003,59.394024 c -0.377133,-3.194965 -0.327324,-6.91648 0.135201,-10.068748 0.839641,-5.763735 2.981486,-11.314002 6.304521,-16.302121 3.194971,-4.80311 7.50709,-9.02274 12.424053,-12.146542 9.122354,-5.80642 19.924025,-7.813053 30.441056,-5.664099 12.587711,2.575881 23.510345,10.986662 29.281197,22.549717 2.305492,4.618099 3.600559,9.165042 4.14135,14.480492 0.120964,1.238128 0.120964,5.742383 0,6.973416 -0.555032,5.528903 -1.971052,10.339124 -4.433094,15.106669 -5.920274,11.477655 -17.006573,19.845737 -29.701023,22.42165 -4.746187,0.960583 -9.684487,1.095769 -14.551641,0.398476 C 42.60275,96.253457 36.511692,93.912384 31.167783,90.382988 26.22947,87.123981 21.938681,82.818972 18.672573,77.859317 15.50608,73.041978 13.321546,67.598444 12.353814,62.09799 c -0.490991,-2.782245 -0.640415,-4.831572 -0.590607,-8.005178 0.03558,-2.3482 0.120966,-3.444011 0.4056,-5.336794 1.921239,-12.651752 9.648908,-23.987098 20.991373,-30.789738 4.952544,-2.974363 10.623776,-5.002346 16.259425,-5.813536 2.405121,-0.348675 3.130926,-0.391365 6.332997,-0.391365 2.433578,0 3.294575,0.02139 4.198279,0.120965 5.656987,0.619075 10.452992,1.992407 15.298792,4.390398 4.59676,2.269917 8.382329,4.988129 12.032698,8.63849 1.66508,1.672194 2.896092,3.073987 4.176924,4.774645 4.490017,5.977209 7.378994,12.865226 8.403625,20.030763 0.32022,2.227214 0.3629,2.953024 0.3629,6.048366 -0.008,3.152257 -0.0492,3.828256 -0.391342,6.19067 -2.454897,16.729066 -14.921645,31.067244 -31.52263,36.261753 -3.942109,1.230995 -7.97672,1.906941 -12.06115,2.013691 l -1.707773,0.0428 -0.02142,0.63338 -0.02142,0.63325 1.586808,-0.0427 c 7.108614,-0.20641 13.77604,-1.921248 20.094799,-5.173159 8.090577,-4.155581 14.964368,-10.709166 19.440151,-18.536456 3.216339,-5.635656 5.094917,-11.570163 5.749537,-18.180675 0.15645,-1.56545 0.17781,-5.785076 0.0429,-7.329185 -0.43421,-4.84586 -1.515843,-9.257602 -3.323211,-13.55549 C 93.273709,27.259422 83.831144,18.094355 72.12579,13.51895 68.240599,12.003302 64.03522,11.01422 59.737307,10.615737 c -1.131391,-0.106733 -5.173123,-0.199241 -6.083938,-0.1352 z"
   id="path121"
   style="fill:#fafafa;fill-opacity:1;stroke:none;stroke-width:0.0071157" /></svg>
