<?xml version="1.0" encoding="UTF-8" standalone="no"?>
<svg
   height="56"
   width="56"
   id="svg14"
   xml:space="preserve"
   enable-background="new 0 0 1000 1000"
   viewBox="0 0 56 56"
   y="0px"
   x="0px"
   version="1.1"
   sodipodi:docname="icon-56-56.svg"
   inkscape:version="1.1 (c4e8f9e, 2021-05-24)"
   inkscape:export-filename="/home/strukturart/Desktop/Pages/greg/application/icons/icon-56-56.png"
   inkscape:export-xdpi="96"
   inkscape:export-ydpi="96"
   xmlns:inkscape="http://www.inkscape.org/namespaces/inkscape"
   xmlns:sodipodi="http://sodipodi.sourceforge.net/DTD/sodipodi-0.dtd"
   xmlns="http://www.w3.org/2000/svg"
   xmlns:svg="http://www.w3.org/2000/svg"
   xmlns:rdf="http://www.w3.org/1999/02/22-rdf-syntax-ns#"
   xmlns:cc="http://creativecommons.org/ns#"
   xmlns:dc="http://purl.org/dc/elements/1.1/"><sodipodi:namedview
   pagecolor="#ffffff"
   bordercolor="#666666"
   borderopacity="1"
   objecttolerance="10"
   gridtolerance="10"
   guidetolerance="10"
   inkscape:pageopacity="0"
   inkscape:pageshadow="2"
   inkscape:window-width="1848"
   inkscape:window-height="1016"
   id="namedview10"
   showgrid="false"
   inkscape:zoom="9.6639998"
   inkscape:cx="37.406872"
   inkscape:cy="26.748759"
   inkscape:window-x="72"
   inkscape:window-y="27"
   inkscape:window-maximized="1"
   inkscape:current-layer="svg14"
   inkscape:document-rotation="0"
   inkscape:pagecheckerboard="false" /><defs
   id="defs18" />
<metadata
   id="metadata2"> Svg Vector Icons : http://www.onlinewebfonts.com/icon <rdf:RDF><cc:Work
     rdf:about=""><dc:format>image/svg+xml</dc:format><dc:type
       rdf:resource="http://purl.org/dc/dcmitype/StillImage" /></cc:Work></rdf:RDF></metadata>

<rect
   style="fill:#000000;fill-opacity:1;stroke-width:0"
   id="rect1296"
   width="49.77182"
   height="51.351009"
   x="3.11409"
   y="2.3244953"
   ry="2.7377849" /><path
   d="m 27.071713,9.9879083 c -0.08446,0.00572 -0.332254,0.022511 -0.549082,0.039426 -3.215627,0.247789 -6.338345,1.385367 -9.010516,3.280395 -3.806956,2.700338 -6.434082,6.757889 -7.247841,11.192767 -0.202746,1.098153 -0.267504,1.849967 -0.270321,3.041048 0,1.01932 0.022511,1.374098 0.143608,2.280795 0.42518,3.167761 1.788023,6.220076 3.902685,8.745835 2.948125,3.5141 7.115495,5.769553 11.595413,6.276392 1.36285,0.152054 3.038242,0.123897 4.406726,-0.07318 7.264732,-1.050288 13.228583,-6.690305 14.611127,-13.811434 0.194302,-1.002421 0.281572,-1.968243 0.278757,-3.108631 0,-1.134776 -0.0901,-2.058344 -0.292835,-3.083299 -0.56035,-2.804549 -1.77677,-5.319057 -3.674615,-7.60266 -0.391384,-0.473054 -1.610624,-1.689474 -2.080865,-2.080875 -1.931628,-1.607807 -4.015315,-2.720041 -6.349602,-3.395832 -0.974255,-0.281581 -2.02174,-0.478687 -3.167762,-0.596949 -0.563157,-0.05634 -2.491974,-0.04785 -3.069221,0.01409 -2.156887,0.233716 -4.001236,0.76871 -5.870908,1.697921 -1.709185,0.85037 -3.133969,1.878134 -4.494006,3.235341 -1.889393,1.88658 -3.232525,4.043472 -4.051925,6.504469 -0.563156,1.695102 -0.810949,3.218445 -0.810949,4.998037 0,1.103773 0.06477,1.841529 0.250612,2.872102 0.599758,3.300108 2.328652,6.467876 4.83189,8.850025 3.826667,3.643636 9.01334,5.259904 14.10711,4.39826 2.697532,-0.456145 5.288051,-1.613439 7.456209,-3.331082 1.182636,-0.937653 2.32303,-2.134364 3.187484,-3.342327 1.610622,-2.258268 2.576432,-4.76713 2.880551,-7.490009 0.06471,-0.565966 0.0901,-2.154079 0.04224,-2.711603 -0.104182,-1.289631 -0.332273,-2.455375 -0.709584,-3.604212 -1.205128,-3.697142 -3.74217,-6.839562 -7.160541,-8.872562 -0.391389,-0.233709 -1.360017,-0.726472 -1.788029,-0.912317 -3.097362,-1.3375 -6.518555,-1.652869 -9.770784,-0.903868 -6.312992,1.45858 -11.18995,6.673411 -12.107895,12.93856 -0.115452,0.791225 -0.149241,1.382549 -0.132341,2.376526 0.01409,0.906676 0.04226,1.29807 0.146418,1.971049 0.385761,2.469431 1.376921,4.795283 2.89745,6.81421 0.458973,0.608206 0.808131,1.005237 1.450124,1.650059 0.625112,0.622287 1.02214,0.974253 1.607822,1.421965 3.159325,2.407509 7.11551,3.511292 11.009732,3.063579 4.488374,-0.512473 8.568452,-3.026975 11.08015,-6.825468 1.343121,-2.033009 2.128729,-4.240595 2.384966,-6.701578 0.04791,-0.473063 0.04791,-2.151275 0,-2.618694 -0.194286,-1.83308 -0.661716,-3.474682 -1.441687,-5.045892 C 41.170397,21.296126 41.035241,21.03708 40.993009,20.961049 40.460812,20.026211 39.9568,19.294107 39.34577,18.559188 38.96845,18.105839 38.143417,17.26674 37.684459,16.866892 34.384348,14.000413 30.152206,12.716412 25.91726,13.296467 c -5.245809,0.71803 -9.798945,4.282815 -11.736212,9.190732 -0.512466,1.300895 -0.822208,2.677824 -0.937654,4.156117 -0.06193,0.816586 -0.0057,2.139997 0.132347,3.01008 0.608202,3.902673 2.90307,7.453392 6.262301,9.691943 0.895436,0.59695 1.911931,1.120679 2.914348,1.498012 1.731714,0.656067 3.429635,0.948913 5.293699,0.90949 0.751814,-0.0169 1.033388,-0.03663 1.633148,-0.121087 2.531404,-0.351968 4.92201,-1.379729 6.926838,-2.979101 0.827859,-0.661709 1.644431,-1.475467 2.31177,-2.311758 2.666563,-3.336703 3.621098,-7.698369 2.573633,-11.744657 -1.351576,-5.212023 -5.766732,-9.266766 -11.077323,-10.179089 -1.314965,-0.225258 -2.810154,-0.253418 -4.099789,-0.07884 -4.907929,0.667338 -9.09781,3.933669 -10.92245,8.514949 -0.810947,2.032998 -1.078443,4.277188 -0.774337,6.476321 0.290029,2.094945 1.174186,4.232135 2.458175,5.941321 0.813778,1.084074 1.765504,2.035806 2.818625,2.812964 1.464196,1.086894 3.209996,1.897842 4.930433,2.286424 1.050291,0.236535 1.833085,0.320992 2.98193,0.320992 1.410715,0 2.62149,-0.18864 3.959,-0.622283 2.835505,-0.915134 5.3134,-2.796073 6.963445,-5.28242 2.072425,-3.122723 2.644033,-6.904315 1.576844,-10.440951 -0.37732,-1.241757 -1.039024,-2.587706 -1.804917,-3.65489 -0.929214,-1.292439 -2.106216,-2.427217 -3.41838,-3.291665 -1.655674,-1.095335 -3.452158,-1.765492 -5.403497,-2.018921 -1.019318,-0.135157 -2.401873,-0.118262 -3.438079,0.03659 -3.989973,0.602567 -7.554768,3.176199 -9.36813,6.760707 -0.946106,1.869683 -1.399455,3.947734 -1.289634,5.918792 0.09011,1.664131 0.456155,3.105819 1.157291,4.558755 0.841927,1.748611 2.044271,3.2269 3.626736,4.454579 1.371296,1.067186 3.091731,1.872509 4.792473,2.247005 0.934845,0.205558 1.588104,0.275951 2.576454,0.275951 1.419153,0 2.486329,-0.171756 3.784424,-0.599763 2.353997,-0.782791 4.415157,-2.266716 5.915971,-4.268737 1.222049,-1.627528 1.973861,-3.483125 2.241372,-5.518958 0.05918,-0.464595 0.08446,-1.785195 0.04223,-2.26952 -0.174583,-1.931631 -0.785608,-3.685866 -1.852799,-5.319036 -0.608206,-0.926385 -1.520525,-1.940066 -2.365252,-2.629947 -2.317401,-1.889388 -5.192322,-2.843935 -8.03064,-2.666538 -2.903086,0.183022 -5.507673,1.360016 -7.549133,3.412742 -0.932021,0.934827 -1.616269,1.903464 -2.196323,3.102983 -0.582866,1.207982 -0.923562,2.438479 -1.041841,3.764714 -0.03935,0.467415 -0.03381,1.498006 0.01406,1.962609 0.08446,0.836285 0.233707,1.528972 0.489942,2.311763 1.267109,3.826654 4.615082,6.749451 8.562816,7.478742 1.154478,0.213996 2.413133,0.242156 3.519737,0.08446 3.097368,-0.444887 5.870922,-2.185053 7.611095,-4.775581 1.036214,-1.543053 1.63315,-3.252234 1.768307,-5.076873 0.03663,-0.464598 0.01978,-1.444487 -0.03094,-1.872491 -0.230905,-1.942905 -1.036214,-3.849185 -2.266712,-5.364084 -1.602185,-1.971054 -3.790057,-3.300106 -6.222904,-3.784422 -0.644816,-0.129522 -1.064375,-0.174576 -1.802104,-0.191475 -0.72929,-0.01689 -1.295261,0.02255 -1.942896,0.13234 -4.485555,0.760265 -8.024997,4.392648 -8.588163,8.813425 -0.06471,0.501214 -0.08446,1.450143 -0.04503,1.959799 0.163315,1.976677 0.91233,3.835093 2.190684,5.431644 0.298486,0.374505 1.04467,1.129148 1.421982,1.438869 1.579661,1.303719 3.511285,2.109039 5.493599,2.289251 0.439267,0.04223 1.416351,0.04223 1.821823,0.0034 2.990372,-0.295657 5.670994,-1.909107 7.332322,-4.406712 0.83629,-1.258663 1.329037,-2.573629 1.52616,-4.082896 0.0703,-0.515285 0.06754,-1.692291 0,-2.196318 -0.146433,-1.084099 -0.397039,-1.931653 -0.847574,-2.877758 -0.47023,-0.982714 -1.069987,-1.824629 -1.872496,-2.629951 -1.27554,-1.278367 -2.784817,-2.134367 -4.513695,-2.556735 -1.357221,-0.335074 -2.866488,-0.349154 -4.229331,-0.04504 -2.486341,0.557524 -4.688296,2.148444 -6.003254,4.33632 -1.171378,1.948522 -1.551508,4.243388 -1.061554,6.42845 0.670156,2.99037 2.928421,5.502042 5.865282,6.521366 2.24982,0.782786 4.685465,0.619471 6.822662,-0.450526 2.497598,-1.250209 4.257467,-3.595766 4.710816,-6.26795 0.447707,-2.655289 -0.436446,-5.33874 -2.401874,-7.281631 -1.098155,-1.081261 -2.514505,-1.875319 -3.973069,-2.218852 -1.982315,-0.470227 -4.004056,-0.21118 -5.803343,0.737738 -0.354788,0.188671 -0.841928,0.504039 -1.224876,0.796872 -0.360424,0.273136 -1.095344,1.00242 -1.391001,1.376922 -1.562764,1.985129 -2.100574,4.429241 -1.492373,6.805768 0.520933,2.032995 1.909111,3.832286 3.781611,4.899472 3.409923,1.945712 7.684279,1.061552 10.055187,-2.083682 0.732102,-0.971443 1.177002,-2.002034 1.396628,-3.238159 0.08448,-0.475874 0.107004,-1.514898 0.04217,-2.013292 -0.14359,-1.092567 -0.520909,-2.12878 -1.109415,-3.041096 -0.563149,-0.875711 -1.433219,-1.731713 -2.328657,-2.294867 -0.329445,-0.208366 -1.022131,-0.546269 -1.379735,-0.67579 -2.207579,-0.796874 -4.606632,-0.492761 -6.532631,0.825025 -0.427997,0.292838 -0.678604,0.501211 -1.041844,0.864444 -1.126316,1.126316 -1.818993,2.537031 -2.01329,4.096981 -0.04223,0.351977 -0.03383,1.210783 0.01404,1.596551 0.233712,1.799286 1.224865,3.469047 2.720049,4.584109 0.968637,0.723652 2.111855,1.174177 3.317007,1.312158 0.422367,0.04789 1.450128,0.0169 1.833079,-0.05346 1.421979,-0.2675 2.601788,-0.884158 3.604212,-1.89221 0.428,-0.425175 0.726469,-0.808131 1.022129,-1.306529 0.993974,-1.675391 1.140396,-3.725289 0.399847,-5.499236 -0.872902,-2.083683 -2.7989,-3.564787 -5.009297,-3.854812 -0.475868,-0.06197 -1.42479,-0.04223 -1.86405,0.04221 -1.295254,0.244984 -2.415944,0.844741 -3.328265,1.788026 -2.075238,2.142817 -2.232912,5.324665 -0.380134,7.619538 0.22245,0.275945 0.695504,0.732094 0.988352,0.954542 0.749001,0.565979 1.599363,0.937668 2.528578,1.103794 0.411105,0.0732 1.261465,0.08731 1.658502,0.02812 2.159706,-0.321007 3.908316,-1.773949 4.558753,-3.792875 0.732114,-2.277969 -0.253419,-4.781211 -2.368079,-6.028604 -1.337494,-0.785603 -2.96502,-0.923581 -4.386994,-0.368869 -1.520532,0.591318 -2.646849,1.841527 -3.055135,3.390217 -0.152044,0.585682 -0.177396,1.396632 -0.05917,1.987943 0.377317,1.869684 1.807736,3.308551 3.699945,3.716841 0.242173,0.05075 0.380144,0.06198 0.864452,0.06198 0.501212,0.0034 0.616655,-0.0059 0.884159,-0.06471 2.446925,-0.520916 4.018125,-2.849576 3.477496,-5.155714 -0.391388,-1.681025 -1.818998,-2.967835 -3.528178,-3.181837 -0.388573,-0.05076 -0.960175,-0.01978 -1.343139,0.06754 -0.774334,0.177396 -1.436051,0.551894 -1.985124,1.120685 -0.309737,0.320975 -0.484309,0.565942 -0.675784,0.940442 -0.267499,0.529373 -0.388577,1.036217 -0.388577,1.630349 0,0.605397 0.109811,1.064368 0.380124,1.602175 0.177397,0.351989 0.34353,0.58851 0.630745,0.886974 0.512465,0.535007 1.086891,0.856004 1.872497,1.050289 0.104182,0.02539 0.335078,0.03665 0.703954,0.03665 0.501203,-0.0034 0.5716,-0.0087 0.819386,-0.07605 1.140396,-0.309738 2.018932,-1.112246 2.379348,-2.170981 0.222445,-0.650441 0.205558,-1.472651 -0.04221,-2.089311 -0.233725,-0.580055 -0.656086,-1.109422 -1.157297,-1.450135 -1.03902,-0.703948 -2.424386,-0.681422 -3.409925,0.06197 -1.309329,0.985532 -1.481103,2.796086 -0.377304,3.922404 0.346341,0.351969 0.7152,0.571609 1.168552,0.695498 0.337888,0.0901 0.875706,0.0901 1.191074,0 0.779975,-0.22245 1.371288,-0.7659 1.613445,-1.483924 0.0901,-0.270321 0.121082,-0.715212 0.07037,-1.016504 -0.152051,-0.87289 -0.932022,-1.57684 -1.807737,-1.635972 -0.844742,-0.05627 -1.610636,0.470238 -1.841536,1.267109 -0.06471,0.228073 -0.06197,0.605387 0.0113,0.836292 0.202738,0.639178 0.729287,1.04184 1.365665,1.04184 0.360415,0 0.605388,-0.09575 0.867256,-0.335076 0.56034,-0.512477 0.458972,-1.399452 -0.197106,-1.700744 -0.171764,-0.07884 -0.506845,-0.08446 -0.653257,-0.0087 -0.340715,0.174584 -0.489958,0.537818 -0.340715,0.827844 0.140784,0.27313 0.518115,0.335072 0.672972,0.106998 0.08447,-0.123894 0.07884,-0.149236 -0.04221,-0.16894 -0.188661,-0.03384 -0.199923,-0.04223 -0.191479,-0.129537 0.0034,-0.04789 0.03096,-0.112624 0.05917,-0.143599 0.07886,-0.0873 0.292851,-0.06197 0.411106,0.04788 0.242167,0.228075 0.211188,0.568793 -0.07606,0.822208 -0.419551,0.36887 -1.072821,0.19711 -1.343136,-0.354788 -0.08446,-0.16894 -0.09291,-0.211184 -0.09291,-0.442078 0,-0.225265 0.01129,-0.273133 0.08731,-0.436447 0.225265,-0.467423 0.650444,-0.732105 1.176995,-0.732105 0.695501,0 1.281183,0.487124 1.441685,1.202345 0.174582,0.791232 -0.343525,1.62471 -1.199528,1.928807 -0.15768,0.05348 -0.239339,0.06472 -0.577229,0.06472 -0.354798,0 -0.413923,-0.0087 -0.608215,-0.07605 -0.706762,-0.247791 -1.227679,-0.844738 -1.365663,-1.565586 -0.213989,-1.112231 0.535003,-2.227281 1.709189,-2.545469 0.194291,-0.05075 0.3041,-0.06197 0.616658,-0.06197 0.453344,0.0034 0.695503,0.05921 1.084081,0.250605 1.258655,0.613842 1.799283,2.156895 1.199526,3.41274 -0.15206,0.318184 -0.312551,0.546265 -0.563151,0.799688 -0.642006,0.650441 -1.57122,0.965809 -2.469456,0.839102 -1.351582,-0.185849 -2.460993,-1.29245 -2.658109,-2.64121 -0.04789,-0.315368 -0.01972,-0.878535 0.05347,-1.165743 0.315368,-1.205156 1.253027,-2.137184 2.472269,-2.455364 0.991161,-0.259047 1.979495,-0.08166 2.880545,0.518102 0.292847,0.194292 0.751819,0.64763 0.948931,0.934842 0.312541,0.456158 0.532177,0.993978 0.616653,1.503632 0.05349,0.335084 0.03935,0.985522 -0.02812,1.295266 -0.154878,0.692682 -0.481497,1.309342 -0.968641,1.821813 -0.501196,0.523736 -1.04465,0.870079 -1.711998,1.089719 -0.77434,0.250595 -1.709184,0.244965 -2.489151,-0.02256 -1.41915,-0.4815 -2.480703,-1.664129 -2.801704,-3.128331 -0.06197,-0.2844 -0.08731,-1.078454 -0.04511,-1.385372 0.10138,-0.701138 0.377316,-1.36848 0.81095,-1.962614 0.08731,-0.11826 0.298475,-0.354787 0.470235,-0.523733 0.616664,-0.61102 1.343144,-1.008054 2.2273,-1.213603 0.312548,-0.07319 0.382937,-0.07886 0.943287,-0.07886 0.596944,-0.0034 0.670152,0.0059 1.123498,0.112635 0.416738,0.101366 0.993977,0.349156 1.376923,0.591313 0.658903,0.419559 1.289639,1.103791 1.678214,1.813374 0.230885,0.427994 0.427989,1.041837 0.498396,1.568387 0.04787,0.371689 0.01976,1.182638 -0.05625,1.523346 -0.180205,0.816587 -0.565973,1.579665 -1.12631,2.218835 -0.720847,0.827846 -1.765505,1.424794 -2.880559,1.650058 -0.275937,0.05627 -0.402659,0.06471 -0.937649,0.06471 -0.672977,-0.0034 -0.89543,-0.03096 -1.413531,-0.180212 -0.853222,-0.244904 -1.557166,-0.655998 -2.216063,-1.298012 -2.14281,-2.078048 -2.148454,-5.355627 -0.01402,-7.487175 0.847553,-0.850372 1.911927,-1.393819 3.133984,-1.599374 0.351962,-0.0592 1.303705,-0.06754 1.621897,-0.01402 1.064362,0.183028 1.889386,0.526552 2.669363,1.115058 1.58528,1.199528 2.466633,3.094553 2.314576,4.98958 -0.109815,1.388191 -0.672969,2.629955 -1.652866,3.643633 -0.948923,0.985534 -2.100575,1.593735 -3.463423,1.833078 -0.292838,0.0535 -0.470233,0.06471 -0.951738,0.06471 -0.785608,0.0034 -1.27273,-0.07319 -1.999209,-0.309734 -0.337886,-0.109846 -0.982708,-0.41113 -1.295256,-0.602602 -1.140397,-0.698326 -2.089318,-1.810565 -2.58771,-3.032606 -0.951736,-2.331471 -0.402662,-4.961427 1.419158,-6.797327 0.194292,-0.194286 0.453339,-0.433626 0.577236,-0.532176 0.98553,-0.777162 2.066793,-1.238953 3.328267,-1.424791 0.422364,-0.06197 1.298074,-0.06197 1.740151,0 1.557131,0.219641 2.914346,0.909497 4.029402,2.047076 1.041838,1.067181 1.700735,2.413131 1.900655,3.882979 0.04792,0.340705 0.04792,1.312152 0,1.661312 -0.225261,1.686665 -1.089711,3.274763 -2.393409,4.395443 -2.891832,2.491978 -7.118322,2.359636 -9.869354,-0.312554 -1.207974,-1.171365 -1.942897,-2.582077 -2.204766,-4.232125 -0.07036,-0.444885 -0.07036,-1.562764 0,-2.018925 0.253426,-1.652869 1.002422,-3.108632 2.204766,-4.285626 1.188265,-1.165743 2.629952,-1.892211 4.291268,-2.165341 0.506836,-0.08447 1.483913,-0.10418 2.013284,-0.04221 1.002424,0.118262 1.824632,0.366045 2.717235,0.822207 2.658108,1.351576 4.367291,4.088525 4.364477,6.994417 0,1.269933 -0.275949,2.399059 -0.864442,3.55635 -0.402666,0.78842 -0.858825,1.41071 -1.512076,2.063967 -1.374113,1.376922 -3.069221,2.193505 -5.014928,2.421583 -0.537825,0.06197 -1.554321,0.04222 -2.106214,-0.04506 -3.136784,-0.487143 -5.769545,-2.689082 -6.802945,-5.696352 -0.143616,-0.413917 -0.267499,-0.917952 -0.343519,-1.388181 -0.08448,-0.526548 -0.10419,-1.568394 -0.03932,-2.123103 0.222447,-1.94572 1.061562,-3.663346 2.477893,-5.085322 1.075632,-1.075635 2.370896,-1.849969 3.815396,-2.275157 1.365658,-0.399836 2.82988,-0.45898 4.246225,-0.168953 2.345542,0.481498 4.448935,1.923182 5.786435,3.967456 0.774345,1.188261 1.250217,2.534204 1.39945,3.956183 0.03663,0.349155 0.03663,1.2671 0,1.635976 -0.304104,3.122719 -2.244177,5.89344 -5.138819,7.340762 -2.674998,1.337496 -5.769549,1.317783 -8.461444,-0.05345 -2.47227,-1.255843 -4.34476,-3.598578 -4.986765,-6.234154 -0.185846,-0.765894 -0.25624,-1.37411 -0.259053,-2.182233 -0.0059,-1.281193 0.239342,-2.480718 0.740563,-3.652088 1.202339,-2.801703 3.685858,-4.924814 6.673408,-5.707607 1.247396,-0.326618 2.55956,-0.399832 3.87172,-0.21119 2.934049,0.419555 5.549915,2.134374 7.168993,4.69956 0.672975,1.064369 1.168548,2.368079 1.374106,3.609852 0.166138,0.993973 0.171767,2.117474 0.01403,3.091726 -0.596941,3.73655 -3.314185,6.898692 -6.994419,8.143276 -2.266732,0.765885 -4.696763,0.723647 -6.98318,-0.121088 -0.678616,-0.250642 -1.602183,-0.729328 -2.238559,-1.160147 -3.286037,-2.218836 -5.090954,-6.045497 -4.646044,-9.860899 0.56033,-4.817815 4.479905,-8.771183 9.376568,-9.461052 0.968633,-0.135157 2.109033,-0.135157 3.055137,0.0034 2.466631,0.354789 4.713625,1.509268 6.476314,3.322638 1.773958,1.824632 2.841141,4.094156 3.103,6.60021 0.05345,0.51529 0.04508,1.692291 -0.0169,2.196313 -0.306915,2.551109 -1.413523,4.823453 -3.226888,6.64245 -1.956981,1.962609 -4.412339,3.122709 -7.180269,3.398655 -0.565966,0.05628 -1.810553,0.03934 -2.370894,-0.02812 -2.68912,-0.335194 -5.121962,-1.543168 -7.019809,-3.483247 -1.286818,-1.315039 -2.190688,-2.787699 -2.756659,-4.482803 -0.430813,-1.28685 -0.605389,-2.469483 -0.571596,-3.835144 0.04225,-1.723262 0.436443,-3.277582 1.227685,-4.843154 0.608215,-1.205156 1.348755,-2.210391 2.345546,-3.18185 3.049513,-2.981922 7.337953,-4.142022 11.440554,-3.094549 1.281191,0.326638 2.579275,0.898242 3.688693,1.630347 2.545465,1.675382 4.406705,4.229313 5.166973,7.090158 0.433633,1.633155 0.509657,3.362049 0.222445,5.017741 -0.422367,2.424336 -1.576838,4.660075 -3.345151,6.473456 -3.815434,3.902436 -9.607525,4.944265 -14.50419,2.601524 -3.877465,-1.852863 -6.625676,-5.547181 -7.205724,-9.680764 -0.104183,-0.757452 -0.123897,-1.086897 -0.107004,-1.948524 0.01691,-0.999614 0.09011,-1.624712 0.290026,-2.500417 0.326635,-1.441687 0.937663,-2.869296 1.77113,-4.139213 2.083686,-3.167769 5.487978,-5.335928 9.19356,-5.854028 1.340318,-0.185846 2.666552,-0.171769 3.970252,0.04225 2.12311,0.349161 4.136413,1.219239 5.885013,2.542658 0.537814,0.408287 0.867265,0.698313 1.424792,1.253026 1.092528,1.092525 1.87249,2.182237 2.545468,3.550711 0.740557,1.512081 1.151662,2.990366 1.295271,4.67984 0.05074,0.58287 0.02254,1.917552 -0.05347,2.500421 -0.385774,2.976287 -1.683855,5.620316 -3.80696,7.757505 -2.756671,2.773534 -6.507308,4.25746 -10.317068,4.082884 -1.996341,-0.0904 -3.71116,-0.529643 -5.490746,-1.408169 -1.46422,-0.720984 -2.590534,-1.529115 -3.759092,-2.700486 -1.095345,-1.095396 -1.889396,-2.182289 -2.562375,-3.508535 -1.444494,-2.838323 -1.838705,-5.915977 -1.15447,-8.996456 0.560342,-2.534205 1.923186,-4.952968 3.863265,-6.859256 2.415941,-2.376532 5.445722,-3.773161 8.850026,-4.082896 0.636365,-0.05634 2.069605,-0.04226 2.675004,0.02817 2.210397,0.261871 4.23214,0.968633 6.084924,2.131552 1.323406,0.830663 2.582081,1.94008 3.547889,3.122714 2.638404,3.238138 3.725287,7.267543 3.035419,11.263143 -1.016492,5.893457 -5.834315,10.711274 -11.837581,11.83759 -1.013684,0.188656 -1.47266,0.228083 -2.717235,0.228083 -1.117877,-0.0034 -1.413533,-0.02255 -2.280793,-0.157707 -4.068841,-0.636639 -7.808207,-3.049778 -10.148139,-6.538541 -0.985519,-1.472647 -1.714809,-3.145232 -2.111837,-4.857238 -0.577238,-2.477894 -0.464602,-5.141631 0.323813,-7.580101 0.453342,-1.405091 1.213611,-2.917162 2.06116,-4.096984 2.035811,-2.827045 4.910744,-4.879762 8.227737,-5.8681 2.018924,-0.602582 4.105419,-0.765899 6.279223,-0.492762 2.078046,0.259048 4.254644,1.041841 6.124342,2.201943 1.883751,1.168545 3.561964,2.787636 4.798092,4.631978 0.996794,1.486736 1.788029,3.30293 2.168158,4.961423 0.287216,1.258659 0.382959,2.10902 0.380138,3.407102 0,0.906683 -0.02539,1.278378 -0.137974,2.075244 -0.551892,3.854811 -2.615871,7.397066 -5.786451,9.922836 -2.452545,1.954161 -5.383782,3.131157 -8.545923,3.42401 -0.506836,0.0479 -2.154074,0.0479 -2.660926,0 -3.728091,-0.346345 -7.104234,-1.900671 -9.807391,-4.510906 -2.652471,-2.562361 -4.350392,-5.944124 -4.761496,-9.489214 -0.149241,-1.264286 -0.12953,-2.736942 0.0535,-3.984344 0.332263,-2.280787 1.179816,-4.477109 2.494788,-6.450967 1.264296,-1.900659 2.970666,-3.570428 4.916365,-4.806557 3.609852,-2.297683 7.884221,-3.091739 12.045948,-2.241368 4.981145,1.019314 9.303384,4.347583 11.586994,8.923252 0.912305,1.827428 1.42477,3.626714 1.638781,5.730117 0.0479,0.48995 0.0479,2.272339 0,2.759482 -0.219634,2.187855 -0.77997,4.091332 -1.754227,5.977919 -2.342746,4.541865 -6.729743,7.85324 -11.75312,8.87256 -1.878129,0.380129 -3.832292,0.433616 -5.758285,0.157671 -2.430034,-0.351961 -4.84034,-1.278353 -6.954999,-2.674984 -1.954162,-1.28965 -3.652087,-2.993192 -4.94453,-4.955804 -1.253024,-1.906294 -2.117477,-4.060364 -2.500421,-6.236971 -0.194289,-1.100977 -0.253421,-1.911927 -0.23371,-3.167769 0.01409,-0.929198 0.04785,-1.362844 0.160502,-2.11184 0.760261,-5.006465 3.818211,-9.492029 8.30657,-12.183921 1.959796,-1.176998 4.20398,-1.979503 6.434088,-2.300498 0.951732,-0.137973 1.238944,-0.154868 2.506051,-0.154868 0.962996,0 1.303704,0.0084 1.661311,0.04785 2.238555,0.244976 4.136403,0.788421 6.053956,1.737342 1.81899,0.898236 3.316999,1.973871 4.761497,3.418365 0.658895,0.661716 1.146027,1.216419 1.652863,1.8894 1.776773,2.365259 2.919985,5.090953 3.325461,7.926453 0.126697,0.88134 0.14359,1.168546 0.14359,2.393426 -0.0034,1.247396 -0.0197,1.514891 -0.154865,2.44973 -0.971443,6.619926 -5.904704,12.293744 -12.473938,14.349252 -1.559952,0.48715 -3.156514,0.754646 -4.772771,0.796872 l -0.675786,0.0169 -0.0087,0.250594 -0.0087,0.250615 0.627927,-0.0169 c 2.812973,-0.08167 5.451362,-0.76028 7.95179,-2.047082 3.201546,-1.644431 5.921602,-4.237772 7.692732,-7.335141 1.272749,-2.230101 2.016101,-4.578477 2.275172,-7.194343 0.06197,-0.619466 0.07031,-2.289229 0.0169,-2.900264 -0.171408,-1.917547 -0.599398,-3.663334 -1.314617,-5.364063 -1.906085,-4.536232 -5.642652,-8.162974 -10.274619,-9.973524 -1.537429,-0.599767 -3.20155,-0.991162 -4.902297,-1.148846 -0.4477,-0.04225 -2.047075,-0.078841 -2.407497,-0.053504 z"
   id="path119"
   style="fill:#ffffff;fill-opacity:1;stroke:none;stroke-width:0.00281579"
   inkscape:export-filename="/home/strukturart/Desktop/Pages/greg/application/icons/icon-56-56.png"
   inkscape:export-xdpi="96"
   inkscape:export-ydpi="96" /></svg>
