<?xml version="1.0" encoding="UTF-8" standalone="no"?>
<svg
   height="112"
   width="112"
   id="svg14"
   xml:space="preserve"
   enable-background="new 0 0 1000 1000"
   viewBox="0 0 112 112"
   y="0px"
   x="0px"
   version="1.1"
   sodipodi:docname="icon-112-112.svg"
   inkscape:version="1.1.1 (eb90963e84, 2021-10-02)"
   xmlns:inkscape="http://www.inkscape.org/namespaces/inkscape"
   xmlns:sodipodi="http://sodipodi.sourceforge.net/DTD/sodipodi-0.dtd"
   xmlns="http://www.w3.org/2000/svg"
   xmlns:svg="http://www.w3.org/2000/svg"
   xmlns:rdf="http://www.w3.org/1999/02/22-rdf-syntax-ns#"
   xmlns:cc="http://creativecommons.org/ns#"
   xmlns:dc="http://purl.org/dc/elements/1.1/"><sodipodi:namedview
   pagecolor="#ffffff"
   bordercolor="#666666"
   borderopacity="1"
   objecttolerance="10"
   gridtolerance="10"
   guidetolerance="10"
   inkscape:pageopacity="0"
   inkscape:pageshadow="2"
   inkscape:window-width="1665"
   inkscape:window-height="971"
   id="namedview10"
   showgrid="false"
   inkscape:zoom="2.5189401"
   inkscape:cx="73.840581"
   inkscape:cy="52.799985"
   inkscape:window-x="26"
   inkscape:window-y="23"
   inkscape:window-maximized="0"
   inkscape:current-layer="svg14"
   inkscape:pagecheckerboard="0" /><defs
   id="defs18" />
<metadata
   id="metadata2"> Svg Vector Icons : http://www.onlinewebfonts.com/icon <rdf:RDF><cc:Work
     rdf:about=""><dc:format>image/svg+xml</dc:format><dc:type
       rdf:resource="http://purl.org/dc/dcmitype/StillImage" /></cc:Work></rdf:RDF></metadata>

<path
   d="m 53.421524,5.9820349 c -0.23456,0.0156 -0.92263,0.0625 -1.52468,0.10947 -8.92916,0.68806 -17.60029,3.84689 -25.02041,9.1089901 -10.57112,7.4983 -17.8661297,18.76531 -20.1257897,31.08004 -0.56296,3.04936 -0.74279,5.137 -0.75061,8.44439 0,2.83043 0.0625,3.81561 0.39876,6.33329 1.18065,8.79623 4.9649897,17.27189 10.8369697,24.28543 8.18636,9.75796 19.7583,16.020875 32.19813,17.428275 3.78434,0.42221 8.43657,0.34403 12.23655,-0.20329 20.1727,-2.916445 36.73308,-18.577645 40.572146,-38.351595 0.53951,-2.78352 0.78189,-5.46539 0.77407,-8.63204 0,-3.15101 -0.2502,-5.7156 -0.81316,-8.56167 -1.55596,-7.7876 -4.933706,-14.76986 -10.203636,-21.11097 -1.08682,-1.31357 -4.4724,-4.69132 -5.77815,-5.77815 -5.36375,-4.46458 -11.14972,-7.55303 -17.63157,-9.42956 -2.70533,-0.7818901 -5.61395,-1.3292101 -8.79623,-1.6576101 -1.56378,-0.15637 -6.91971,-0.13292 -8.52258,0.0391 -5.98926,0.64896 -11.11062,2.1345501 -16.30236,4.7147801 -4.74606,2.3613 -8.70241,5.21519 -12.47893,8.98389 -5.24646,5.23865 -8.97607,11.22791 -11.25136,18.06161 -1.5637797,4.70696 -2.2518397,8.93698 -2.2518397,13.87851 0,3.065 0.17984,5.11354 0.69588,7.97525 1.6654197,9.16373 6.4662097,17.95996 13.4171897,24.57473 10.62586,10.11763 25.02823,14.605655 39.17258,12.21309 7.49049,-1.26666 14.68385,-4.48022 20.70439,-9.24973 3.28392,-2.60369 6.45057,-5.92671 8.85097,-9.28101 4.47239,-6.27074 7.15427,-13.23736 7.99871,-20.79821 0.179826,-1.5716 0.250196,-5.98145 0.11728,-7.52958 -0.2893,-3.58105 -0.92263,-6.81806 -1.97035,-10.00817 -3.34648,-10.26618 -10.39129,-18.99205 -19.88341,-24.63728 -1.08682,-0.64897 -3.77652,-2.01727 -4.96499,-2.53332 -8.60076,-3.71396 -18.1007,-4.58968 -27.1315,-2.50986 -17.52993,4.05018 -31.07222,18.53074 -33.62118,35.92775 -0.32057,2.1971 -0.4144,3.83907 -0.36748,6.59913 0.0391,2.51768 0.11728,3.6045 0.40658,5.47321 1.07119,6.85716 3.82343,13.31555 8.04562,18.92169 1.27448,1.68888 2.24402,2.79134 4.02673,4.58186 1.73579,1.72797 2.83825,2.70533 4.46458,3.94853 8.77278,6.68514 19.7583,9.75014 30.57181,8.50694 12.46329,-1.42304 23.79284,-8.40529 30.76728,-18.95296 3.7296,-5.64523 5.91107,-11.77523 6.62259,-18.60893 0.13292,-1.31357 0.13292,-5.97362 0,-7.27155 -0.53951,-5.09009 -1.83744,-9.6485 -4.00327,-14.01143 -0.33621,-0.67242 -0.71152,-1.39176 -0.8288,-1.60287 -1.47777,-2.59587 -2.87734,-4.62878 -4.57404,-6.6695 -1.04773,-1.25884 -3.33866,-3.58887 -4.61314,-4.69915 -9.16372,-7.95962 -20.9155,-11.52502 -32.67509,-9.91434 -14.56657,1.99382 -27.20969,11.89252 -32.58908,25.52082 -1.42303,3.61232 -2.28311,7.43575 -2.60369,11.54066 -0.17201,2.26748 -0.0156,5.94235 0.36749,8.35838 1.68888,10.83697 8.06126,20.69657 17.38918,26.91258 2.48641,1.6576 5.30902,3.11191 8.09254,4.15964 4.80861,1.8218 9.5234,2.63496 14.69949,2.5255 2.08764,-0.0469 2.86953,-0.10165 4.53495,-0.33621 7.02917,-0.97736 13.6674,-3.83125 19.23444,-8.27238 2.29875,-1.83743 4.56622,-4.09708 6.4193,-6.41929 7.40448,-9.26537 10.05508,-21.37681 7.14645,-32.61254 -3.75306,-14.47274 -16.01306,-25.73193 -30.75946,-28.26524 -3.65142,-0.62551 -7.80324,-0.7037 -11.38429,-0.21893 -13.6283,1.85307 -25.26279,10.92297 -30.32942,23.64428 -2.25184,5.64523 -2.99463,11.87688 -2.15019,17.98342 0.80534,5.81725 3.26047,11.75178 6.82588,16.49783 2.25965,3.01027 4.90243,5.65305 7.82669,7.81106 4.06582,3.01809 8.91352,5.26993 13.69086,6.34893 2.91644,0.65679 5.09009,0.89136 8.28019,0.89136 3.91726,0 7.27937,-0.52387 10.99334,-1.72798 7.87361,-2.54113 14.75422,-7.76414 19.33609,-14.66821 5.75469,-8.67114 7.34192,-19.17189 4.37856,-28.9924 -1.04772,-3.44813 -2.88516,-7.18555 -5.01189,-10.1489 -2.58023,-3.58887 -5.84853,-6.73988 -9.49212,-9.14027 -4.5975,-3.04154 -9.58595,-4.90244 -15.00443,-5.60614 -2.83043,-0.3753 -6.6695,-0.32839 -9.54685,0.10165 -11.07935,1.67324 -20.97805,8.81969 -26.0134,18.77312 -2.62715,5.19174 -3.88598,10.96207 -3.58105,16.43528 0.25021,4.62096 1.26666,8.62422 3.21356,12.65877 2.33784,4.85552 5.67651,8.96043 10.07071,12.36946 3.8078,2.96336 8.58513,5.19955 13.30773,6.23947 2.59587,0.57077 4.40985,0.76624 7.15428,0.76624 3.94071,0 6.90407,-0.47695 10.50857,-1.66542 6.53658,-2.17364 12.26,-6.29419 16.42746,-11.85341 3.39339,-4.51932 5.48103,-9.67195 6.22383,-15.325 0.16419,-1.29012 0.23456,-4.95717 0.11728,-6.30202 -0.48477,-5.36375 -2.18147,-10.23491 -5.14482,-14.76986 -1.68888,-2.57241 -4.22219,-5.3872 -6.56786,-7.30283 -6.43494,-5.24647 -14.41801,-7.89707 -22.29944,-7.40448 -8.06126,0.50823 -15.29372,3.77652 -20.96241,9.47648 -2.58805,2.59587 -4.48803,5.28556 -6.09872,8.61641 -1.61851,3.35429 -2.56459,6.77114 -2.89299,10.45383 -0.10946,1.29794 -0.0938,4.15965 0.0391,5.44976 0.23456,2.32221 0.64896,4.24565 1.36048,6.4193 3.5185,10.62585 12.81514,18.74185 23.77721,20.76694 3.20574,0.59423 6.70078,0.67242 9.77359,0.23457 8.60077,-1.23539 16.30236,-6.06745 21.13443,-13.26082 2.87735,-4.28474 4.53495,-9.0308 4.91025,-14.09744 0.10165,-1.29011 0.0547,-4.01108 -0.086,-5.19955 -0.64115,-5.39503 -2.87735,-10.68841 -6.2942,-14.89496 -4.44894,-5.47322 -10.52421,-9.16373 -17.27972,-10.50857 -1.79052,-0.35967 -2.95553,-0.48477 -5.00408,-0.53169 -2.02509,-0.0469 -3.59668,0.0625 -5.39503,0.36749 -12.45547,2.1111 -22.2838,12.19745 -23.84757,24.47309 -0.17984,1.39176 -0.23457,4.02672 -0.1251,5.44194 0.45349,5.48885 2.53331,10.64931 6.08308,15.08261 0.8288,1.03991 2.90081,3.13537 3.94854,3.99544 4.38639,3.62015 9.75014,5.85635 15.25463,6.35675 1.21974,0.11729 3.93289,0.11729 5.05881,0.008 8.30365,-0.82098 15.74722,-5.30119 20.36036,-12.23654 2.3222,-3.49504 3.69051,-7.14645 4.23783,-11.33737 0.19547,-1.43086 0.18765,-4.69915 0,-6.09873 -0.40659,-3.01026 -1.10246,-5.36375 -2.35349,-7.99089 -1.30574,-2.72879 -2.97117,-5.06663 -5.19955,-7.30283 -3.54195,-3.54977 -7.73287,-5.92671 -12.53366,-7.09954 -3.7687,-0.93045 -7.95961,-0.96954 -11.74395,-0.1251 -6.90407,1.54813 -13.01843,5.9658 -16.66985,12.04107 -3.25265,5.41066 -4.3082,11.78305 -2.94772,17.85049 1.8609,8.30365 8.13164,15.27809 16.28673,18.10852 6.24728,2.17365 13.01061,1.72016 18.94513,-1.25101 6.93535,-3.47159 11.82215,-9.98471 13.08099,-17.40483 1.2432,-7.3732 -1.21193,-14.82459 -6.6695,-20.21961 -3.04936,-3.00245 -6.98226,-5.20738 -11.03244,-6.16128 -5.50449,-1.30575 -11.11844,-0.58642 -16.11471,2.04855 -0.98518,0.52386 -2.33784,1.39958 -3.40121,2.21274 -1.00081,0.75843 -3.04154,2.78352 -3.86252,3.82343 -4.33948,5.51231 -5.83289,12.29909 -4.14401,18.89823 1.44649,5.64523 5.3012,10.64149 10.50075,13.60484 9.46866,5.40285 21.33772,2.94772 27.92122,-5.78596 2.03291,-2.69752 3.26828,-5.55923 3.87816,-8.99171 0.23456,-1.3214 0.29712,-4.20656 0.11728,-5.5905 -0.39876,-3.03373 -1.44649,-5.91107 -3.08064,-8.44439 -1.56377,-2.43167 -3.97981,-4.80861 -6.46621,-6.37239 -0.91481,-0.57859 -2.83825,-1.51686 -3.83125,-1.87653 -6.13,-2.21274 -12.79168,-1.3683 -18.13979,2.29094 -1.18847,0.81316 -1.88435,1.39176 -2.89299,2.40039 -3.12755,3.12755 -5.05099,7.04481 -5.5905,11.37647 -0.11728,0.97736 -0.0938,3.36212 0.0391,4.4333 0.64897,4.99626 3.40121,9.63286 7.55303,12.72913 2.6897,2.00946 5.86416,3.26048 9.21064,3.6436 1.17283,0.13292 4.02672,0.0469 5.09009,-0.14856 3.94854,-0.74279 7.22464,-2.45513 10.00816,-5.25428 1.18848,-1.18065 2.01727,-2.24402 2.83826,-3.62796 2.76006,-4.65223 3.16664,-10.34438 1.11028,-15.27027 -2.42385,-5.78597 -7.77197,-9.8987 -13.90979,-10.70404 -1.32139,-0.17202 -3.95635,-0.11729 -5.17609,0.11728 -3.59669,0.68024 -6.7086,2.34566 -9.24192,4.96499 -5.76251,5.95016 -6.20037,14.78549 -1.05554,21.15788 0.61769,0.76625 1.93126,2.0329 2.74442,2.6506 2.07982,1.57159 4.44112,2.60369 7.02135,3.065 1.14156,0.20329 3.50286,0.24239 4.60532,0.0782 5.99708,-0.89135 10.8526,-4.92589 12.65877,-10.53203 2.03291,-6.32547 -0.7037,-13.27645 -6.57568,-16.74022 -3.71397,-2.18146 -8.23328,-2.56459 -12.18181,-1.02427 -4.2222,1.64196 -7.34975,5.11355 -8.48348,9.41393 -0.42222,1.62632 -0.49259,3.87816 -0.1642,5.52013 1.04773,5.19173 5.01972,9.18718 10.27401,10.32091 0.67242,0.14074 1.05554,0.17202 2.40039,0.17202 1.39176,0.008 1.71233,-0.0156 2.45513,-0.17983 6.7946,-1.4465 11.15753,-7.91271 9.65631,-14.31637 -1.08682,-4.66787 -5.05099,-8.2411 -9.79705,-8.83533 -1.07901,-0.14074 -2.66624,-0.0547 -3.72961,0.18765 -2.15019,0.49259 -3.98762,1.5325 -5.5123,3.11191 -0.86008,0.89136 -1.34485,1.5716 -1.87654,2.61151 -0.74279,1.46995 -1.079,2.87735 -1.079,4.52713 0,1.68106 0.30494,2.95554 1.05555,4.44894 0.49259,0.97736 0.9539,1.63415 1.75143,2.46295 1.42303,1.48558 3.01808,2.37694 5.19955,2.91644 0.2893,0.0704 0.93045,0.10164 1.95472,0.10164 1.39176,-0.008 1.58723,-0.0235 2.27529,-0.21111 3.16665,-0.86007 5.60614,-3.08845 6.60695,-6.02835 0.6177,-1.80616 0.57078,-4.08927 -0.11728,-5.80161 -0.64897,-1.61069 -1.8218,-3.08063 -3.21356,-4.02672 -2.88516,-1.95472 -6.73205,-1.89217 -9.46866,0.17202 -3.63578,2.7366 -4.11273,7.76414 -1.04773,10.89169 0.96172,0.97736 1.986,1.58723 3.24484,1.93127 0.93826,0.2502 2.43167,0.2502 3.30738,0 2.16583,-0.6177 3.80779,-2.12674 4.48022,-4.12055 0.2502,-0.75062 0.33621,-1.986 0.19547,-2.82262 -0.42222,-2.42385 -2.58805,-4.37857 -5.01972,-4.54277 -2.34566,-0.15637 -4.4724,1.30576 -5.11355,3.5185 -0.17983,0.63333 -0.17201,1.68106 0.0313,2.32221 0.56296,1.77488 2.02509,2.89298 3.79216,2.89298 1.00081,0 1.68105,-0.26584 2.40821,-0.93045 1.55596,-1.42303 1.27448,-3.88598 -0.54732,-4.7226 -0.47695,-0.21893 -1.4074,-0.23456 -1.81398,-0.0234 -0.94608,0.48477 -1.36049,1.4934 -0.94608,2.29875 0.39094,0.75843 1.43867,0.93044 1.86871,0.29711 0.23456,-0.34403 0.21893,-0.4144 -0.11729,-0.46913 -0.52386,-0.0938 -0.55514,-0.11728 -0.53168,-0.35967 0.008,-0.13292 0.086,-0.31275 0.1642,-0.39876 0.21893,-0.24239 0.81316,-0.17202 1.14155,0.13292 0.67243,0.63333 0.58642,1.57941 -0.21111,2.28311 -1.16501,1.02428 -2.97899,0.54732 -3.7296,-0.98518 -0.23457,-0.46913 -0.25802,-0.58641 -0.25802,-1.22756 0,-0.62551 0.0313,-0.75843 0.24238,-1.21193 0.62551,-1.29793 1.80616,-2.0329 3.26829,-2.0329 1.93126,0 3.55759,1.35266 4.00327,3.33866 0.48477,2.1971 -0.95391,4.51149 -3.33085,5.35593 -0.43785,0.14856 -0.6646,0.17983 -1.60286,0.17983 -0.98518,0 -1.14938,-0.0234 -1.68888,-0.21111 -1.96254,-0.68806 -3.40903,-2.34566 -3.79216,-4.34729 -0.59423,-3.08846 1.48559,-6.18474 4.74606,-7.06827 0.5395,-0.14074 0.84444,-0.17201 1.71233,-0.17201 1.25884,0.008 1.93127,0.16419 3.01027,0.69588 3.49504,1.70451 4.99627,5.98926 3.33084,9.47648 -0.42221,0.88353 -0.86789,1.51686 -1.56377,2.22056 -1.78271,1.80616 -4.36293,2.68187 -6.85716,2.33002 -3.75306,-0.51604 -6.8337,-3.58886 -7.38102,-7.3341 -0.13292,-0.87572 -0.0547,-2.43949 0.14856,-3.23702 0.87572,-3.34648 3.4794,-5.93453 6.86498,-6.81806 2.75224,-0.71934 5.49667,-0.22675 7.99871,1.43867 0.81316,0.5395 2.08764,1.79834 2.63496,2.59587 0.86789,1.26666 1.47777,2.76006 1.71233,4.17528 0.14856,0.93045 0.10947,2.73661 -0.0782,3.59668 -0.43003,1.92345 -1.33702,3.63578 -2.68969,5.05882 -1.39176,1.45431 -2.9008,2.41603 -4.75388,3.0259 -2.15019,0.69588 -4.74606,0.68024 -6.91188,-0.0625 -3.94072,-1.33703 -6.88844,-4.62096 -7.77979,-8.68677 -0.17201,-0.78971 -0.24238,-2.99463 -0.1251,-3.84689 0.28148,-1.9469 1.04773,-3.79997 2.25184,-5.44976 0.24238,-0.32839 0.8288,-0.98517 1.30575,-1.45431 1.71233,-1.69669 3.7296,-2.79916 6.18473,-3.36993 0.8679,-0.20329 1.06337,-0.21893 2.61933,-0.21893 1.6576,-0.008 1.86089,0.0156 3.11973,0.31275 1.15719,0.28148 2.76006,0.96954 3.82343,1.64197 1.82962,1.16501 3.58105,3.065 4.66005,5.03535 0.64115,1.18847 1.18847,2.89299 1.38394,4.35512 0.13292,1.03209 0.0547,3.28393 -0.15638,4.23001 -0.5004,2.26748 -1.57159,4.38639 -3.12755,6.16128 -2.00163,2.29874 -4.90243,3.95635 -7.99871,4.58186 -0.76625,0.15637 -1.1181,0.17983 -2.60368,0.17983 -1.86872,-0.008 -2.48641,-0.086 -3.92508,-0.5004 -2.36912,-0.68025 -4.32384,-1.82181 -6.15346,-3.60451 -5.95016,-5.77033 -5.9658,-14.8715 -0.0391,-20.79039 2.35348,-2.3613 5.30902,-3.87035 8.70241,-4.44112 0.97736,-0.1642 3.62014,-0.18766 4.50367,-0.0391 2.95554,0.50823 5.24647,1.46213 7.4123,3.09628 4.40203,3.33084 6.84933,8.59294 6.42711,13.85505 -0.30493,3.8547 -1.86871,7.30283 -4.58967,10.11762 -2.63497,2.73661 -5.83289,4.42549 -9.61723,5.09009 -0.81316,0.14856 -1.30575,0.17984 -2.64278,0.17984 -2.18146,0.008 -3.53413,-0.20329 -5.5514,-0.86008 -0.93826,-0.30493 -2.72879,-1.14156 -3.59668,-1.67324 -3.16665,-1.93908 -5.80161,-5.02754 -7.18555,-8.42093 -2.64278,-6.47403 -1.1181,-13.77686 3.94071,-18.87477 0.53951,-0.5395 1.25884,-1.20411 1.60287,-1.47777 2.73661,-2.15801 5.73906,-3.4403 9.24192,-3.95635 1.17283,-0.17201 3.6045,-0.17201 4.83206,0 4.32384,0.60987 8.09254,2.5255 11.18882,5.68432 2.89298,2.96336 4.7226,6.70078 5.27774,10.78224 0.13292,0.94608 0.13292,3.64359 0,4.61313 -0.62551,4.68351 -3.02591,9.09336 -6.64605,12.20527 -8.02998,6.91971 -19.76612,6.55222 -27.40516,-0.8679 -3.3543,-3.25264 -5.39503,-7.1699 -6.12218,-11.75177 -0.19548,-1.23538 -0.19548,-4.33947 0,-5.60613 0.70369,-4.58968 2.78352,-8.63204 6.12218,-11.90033 3.29956,-3.23702 7.30283,-5.25429 11.91597,-6.01272 1.40739,-0.23457 4.12054,-0.2893 5.59049,-0.11728 2.78352,0.32839 5.06664,1.01645 7.54522,2.28311 7.38102,3.75306 12.12708,11.35301 12.11926,19.42209 0,3.52631 -0.76625,6.66168 -2.40039,9.87524 -1.1181,2.18929 -2.38476,3.91726 -4.19874,5.73124 -3.81561,3.82343 -8.52258,6.09091 -13.92542,6.72423 -1.49341,0.17202 -4.31602,0.11729 -5.84852,-0.1251 -8.71023,-1.35266 -16.02088,-7.46703 -18.89041,-15.81759 -0.39876,-1.14937 -0.74279,-2.54895 -0.9539,-3.8547 -0.23457,-1.46213 -0.2893,-4.35512 -0.10947,-5.89544 0.61769,-5.40284 2.94772,-10.17236 6.88061,-14.12089 2.98681,-2.98681 6.5835,-5.137 10.59458,-6.31765 3.79216,-1.11028 7.85797,-1.27448 11.79087,-0.46913 6.51312,1.33702 12.35382,5.34029 16.06779,11.01679 2.15019,3.29957 3.47159,7.03699 3.88598,10.98553 0.10165,0.96954 0.10165,3.51849 0,4.54276 -0.84444,8.67114 -6.23164,16.36492 -14.26945,20.38382 -7.42793,3.71396 -16.02088,3.65923 -23.49572,-0.14856 -6.86498,-3.48722 -12.06453,-9.99252 -13.84724,-17.311 -0.51604,-2.12673 -0.71151,-3.81561 -0.71933,-6.05963 -0.0156,-3.55758 0.6646,-6.88843 2.05636,-10.14108 3.33866,-7.77978 10.23491,-13.67522 18.53074,-15.84886 3.46377,-0.90699 7.10736,-1.11028 10.75096,-0.58642 8.14727,1.16501 15.411,5.92671 19.90686,13.04971 1.86871,2.95553 3.24483,6.57567 3.81561,10.0238 0.46131,2.76006 0.47695,5.87979 0.0391,8.58512 -1.6576,10.37565 -9.20282,19.15626 -19.42209,22.6122 -6.2942,2.12673 -13.04189,2.00945 -19.39082,-0.33621 -1.88435,-0.69588 -4.44894,-2.02509 -6.21601,-3.22138 -9.12463,-6.16127 -14.13653,-16.78713 -12.90115,-27.38171 1.55596,-13.3781 12.43984,-24.3558 26.03687,-26.27143 2.68969,-0.3753 5.85634,-0.3753 8.48348,0.008 6.84933,0.98518 13.0888,4.19092 17.98342,9.22628 4.92589,5.06663 7.88924,11.36864 8.6164,18.32745 0.14856,1.43085 0.1251,4.69914 -0.0469,6.09872 -0.85225,7.0839 -3.92507,13.39374 -8.96043,18.44473 -5.43412,5.44976 -12.25218,8.67114 -19.93813,9.43739 -1.5716,0.15637 -5.02754,0.10946 -6.5835,-0.0782 -7.46703,-0.93045 -14.22254,-4.28475 -19.49246,-9.67195 -3.57323,-3.65142 -6.08309,-7.74069 -7.65468,-12.44766 -1.19629,-3.57322 -1.68106,-6.85715 -1.58723,-10.64931 0.11728,-4.78515 1.21192,-9.10117 3.40903,-13.44847 1.68887,-3.34648 3.74524,-6.13782 6.51312,-8.83533 8.46785,-8.28019 20.376,-11.50157 31.7681,-8.59294 3.55759,0.90699 7.16209,2.49422 10.24273,4.52713 7.06826,4.65223 12.23654,11.74395 14.34764,19.68793 1.20411,4.53495 1.41522,9.33574 0.61769,13.93324 -1.17283,6.73205 -4.37857,12.94024 -9.28882,17.9756 -10.59458,10.83696 -26.67802,13.72995 -40.27504,7.22464 -10.7666,-5.14482 -18.39782,-15.40319 -20.00851,-26.8813 -0.2893,-2.10328 -0.34403,-3.01809 -0.29712,-5.41066 0.0469,-2.7757 0.25021,-4.5115 0.80535,-6.94317 0.90699,-4.00326 2.60368,-7.96743 4.91807,-11.49375 5.78597,-8.79623 15.23899,-14.81677 25.52864,-16.25544 3.72178,-0.51605 7.40447,-0.47695 11.02461,0.11728 5.89544,0.96954 11.48593,3.38557 16.34146,7.06045 1.4934,1.13373 2.40821,1.93908 3.95635,3.4794 3.03372,3.03372 5.19955,6.05963 7.06826,9.8596 2.05637,4.19874 3.19792,8.30365 3.59669,12.99498 0.14074,1.6185 0.0625,5.32465 -0.14856,6.94316 -1.07119,8.26455 -4.67569,15.60648 -10.57113,21.54101 -7.65467,7.70159 -18.06942,11.82214 -28.64836,11.33737 -5.54358,-0.2502 -10.30528,-1.46995 -15.24681,-3.90944 -4.06582,-2.00163 -7.19337,-4.24565 -10.4382,-7.4983 -3.04155,-3.04155 -5.24647,-6.05963 -7.11518,-9.74232 -4.01109,-7.88143 -5.10573,-16.42747 -3.20574,-24.98132 1.55596,-7.03699 5.34029,-13.7534 10.7275,-19.04678 6.7086,-6.59914 15.12171,-10.4773 24.57473,-11.33738 1.76707,-0.15637 5.74688,-0.11728 7.42793,0.0782 6.13782,0.72716 11.75178,2.6897 16.8966,5.91889 3.67487,2.30657 7.16991,5.38721 9.85178,8.67114 7.32629,8.99171 10.34438,20.18052 8.42875,31.27551 -2.82261,16.36491 -16.20071,29.74301 -32.87056,32.87056 -2.81479,0.52387 -4.08927,0.63333 -7.54521,0.63333 -3.1041,-0.008 -3.92508,-0.0625 -6.33329,-0.43786 -11.29828,-1.76707 -21.68175,-8.46784 -28.17924,-18.15543 -2.73661,-4.08928 -4.7617,-8.73369 -5.86416,-13.48757 -1.60287,-6.88061 -1.29011,-14.27727 0.89917,-21.04841 1.25884,-3.90162 3.36994,-8.10036 5.72342,-11.37647 5.65305,-7.85015 13.63612,-13.55012 22.84676,-16.29454 5.60614,-1.67324 11.39993,-2.12674 17.4361,-1.36831 5.77033,0.71934 11.81432,2.89299 17.00606,6.11437 5.23083,3.24483 9.89088,7.74069 13.32337,12.86205 2.76788,4.12837 4.96498,9.17154 6.02053,13.77686 0.79752,3.49504 1.06337,5.85634 1.05555,9.46084 0,2.51768 -0.0704,3.54977 -0.38313,5.76252 -1.53249,10.70404 -7.26374,20.54019 -16.06779,27.55372 -6.81024,5.4263 -14.94969,8.69459 -23.73029,9.50776 -1.4074,0.13291 -5.98144,0.13291 -7.38884,0 -10.3522,-0.96172 -19.72703,-5.27774 -27.23315,-12.52584 -7.36538,-7.11519 -12.08017,-16.50566 -13.22172,-26.34962 -0.4144,-3.51068 -0.35967,-7.59995 0.14856,-11.06371 0.92262,-6.33329 3.2761,-12.43202 6.92752,-17.91305 3.51068,-5.27774 8.24892,-9.91434 13.65176,-13.34683 10.0238,-6.3802 21.89286,-8.5851201 33.44916,-6.22382 13.83159,2.83043 25.83357,12.07234 32.17468,24.77802 2.53331,5.07445 3.956346,10.07071 4.550586,15.91142 0.13292,1.36048 0.13292,6.30983 0,7.6625 -0.60988,6.07526 -2.165826,11.36082 -4.871166,16.59947 -6.5053,12.61185 -18.68711,21.80685 -32.63599,24.637275 -5.21519,1.05555 -10.64149,1.20411 -15.9896,0.43786 -6.7477,-0.97736 -13.44065,-3.549765 -19.31263,-7.427925 -5.4263,-3.58105 -10.14109,-8.31147 -13.72995,-13.76123 -3.4794,-5.29337 -5.8797997,-11.27482 -6.9431597,-17.31881 -0.53951,-3.05718 -0.7037,-5.30902 -0.64897,-8.79624 0.0391,-2.58023 0.13292,-3.78433 0.44568,-5.86415 2.11109,-13.90197 10.6023897,-26.35744 23.0656797,-33.83229 5.44194,-3.26829 11.67359,-5.4966701 17.86614,-6.3880201 2.64278,-0.38313 3.44031,-0.43004 6.9588,-0.43004 2.67406,0 3.62014,0.0235 4.61314,0.13292 6.216,0.68025 11.48593,2.18929 16.81058,4.8242501 5.051,2.49422 9.21064,5.48103 13.22173,9.49212 1.82962,1.83743 3.18228,3.37775 4.58968,5.24646 4.93371,6.56786 8.108166,14.13653 9.234086,22.01014 0.35185,2.44731 0.39876,3.24484 0.39876,6.64605 -0.008,3.46376 -0.0547,4.20656 -0.43003,6.80242 -2.69751,18.38218 -16.396186,34.13722 -34.637626,39.844995 -4.33166,1.35267 -8.76496,2.09546 -13.253,2.21274 l -1.87653,0.0469 -0.0235,0.69588 -0.0235,0.69588 1.74361,-0.0469 c 7.81106,-0.22675 15.13735,-2.1111 22.08051,-5.68433 8.89006,-4.566215 16.4431,-11.767405 21.36117,-20.368165 3.534126,-6.19256 5.598316,-12.7135 6.317656,-19.97724 0.17201,-1.72015 0.19547,-6.35674 0.0469,-8.05344 -0.47696,-5.32466 -1.66542,-10.17236 -3.65142,-14.89496 -5.293376,-12.59621 -15.669026,-22.66693 -28.531076,-27.6944701 -4.26911,-1.66542 -8.89006,-2.75224 -13.61267,-3.1901 -1.2432,-0.11728 -5.68432,-0.21893 -6.68514,-0.14856 z"
   id="path121"
   style="fill:#000000;stroke:none;stroke-width:0.00781886" /></svg>
