<?xml version="1.0" encoding="UTF-8" standalone="no"?>
<svg
   height="56"
   width="56"
   id="svg14"
   xml:space="preserve"
   enable-background="new 0 0 1000 1000"
   viewBox="0 0 56 56"
   y="0px"
   x="0px"
   version="1.1"
   sodipodi:docname="icon-56-56.svg"
   inkscape:version="1.1.1 (eb90963e84, 2021-10-02)"
   inkscape:export-filename="/home/strukturart/Desktop/Pages/rss-reader/application/icons/icon-56-56.png"
   inkscape:export-xdpi="96"
   inkscape:export-ydpi="96"
   xmlns:inkscape="http://www.inkscape.org/namespaces/inkscape"
   xmlns:sodipodi="http://sodipodi.sourceforge.net/DTD/sodipodi-0.dtd"
   xmlns="http://www.w3.org/2000/svg"
   xmlns:svg="http://www.w3.org/2000/svg"
   xmlns:rdf="http://www.w3.org/1999/02/22-rdf-syntax-ns#"
   xmlns:cc="http://creativecommons.org/ns#"
   xmlns:dc="http://purl.org/dc/elements/1.1/"><sodipodi:namedview
   pagecolor="#ffffff"
   bordercolor="#666666"
   borderopacity="1"
   objecttolerance="10"
   gridtolerance="10"
   guidetolerance="10"
   inkscape:pageopacity="0"
   inkscape:pageshadow="2"
   inkscape:window-width="1551"
   inkscape:window-height="991"
   id="namedview10"
   showgrid="false"
   inkscape:zoom="2.4448394"
   inkscape:cx="60.944699"
   inkscape:cy="17.588068"
   inkscape:window-x="26"
   inkscape:window-y="23"
   inkscape:window-maximized="0"
   inkscape:current-layer="svg14"
   inkscape:document-rotation="0"
   inkscape:pagecheckerboard="false" /><defs
   id="defs18" />
<metadata
   id="metadata2"> Svg Vector Icons : http://www.onlinewebfonts.com/icon <rdf:RDF><cc:Work
     rdf:about=""><dc:format>image/svg+xml</dc:format><dc:type
       rdf:resource="http://purl.org/dc/dcmitype/StillImage" /></cc:Work></rdf:RDF></metadata>

<path
   d="m 26.041068,2.0478106 c -0.121968,0.00836 -0.479765,0.0325 -0.792834,0.056922 -4.64317,0.3577977 -9.152162,2.0003873 -13.010632,4.736687 C 6.7406087,10.740543 2.9472032,16.59939 1.7721873,23.00306 c -0.2927511,1.585668 -0.3862584,2.671244 -0.3903256,4.391082 0,1.471834 0.0325,1.984128 0.2073596,3.293322 0.6139352,4.574048 2.5817944,8.981398 5.6352295,12.628441 4.2569122,5.07414 10.2743332,8.330867 16.7430492,9.062713 1.96786,0.219551 4.387024,0.178899 6.363017,-0.105709 10.489818,-1.516554 19.101234,-9.660388 21.097545,-19.942855 0.28055,-1.447432 0.406585,-2.842009 0.402518,-4.488665 0,-1.638532 -0.130103,-2.97212 -0.422844,-4.45208 C 50.598633,19.339748 48.8422,15.708973 46.101834,12.411592 45.536686,11.728535 43.776186,9.9721021 43.097195,9.4069449 40.308041,7.0853644 37.299335,5.4793699 33.928765,4.50357 32.521995,4.0969851 31.009508,3.8123775 29.354717,3.641613 28.541557,3.56027 25.756461,3.572527 24.922974,3.661949 21.80855,3.9994202 19.14544,4.7719184 16.445736,6.1136411 c -2.467961,1.2278796 -4.52526,2.711906 -6.4890526,4.6716309 -2.7281654,2.724107 -4.6675639,5.838521 -5.8507235,9.392049 -0.8131604,2.447625 -1.1709581,4.647237 -1.1709581,7.21683 0,1.593802 0.093517,2.659052 0.3618648,4.147145 0.8660148,4.765139 3.362427,9.339195 6.9769434,12.778879 5.525453,5.261173 13.014699,7.594955 20.369776,6.350807 3.895056,-0.658656 7.635607,-2.329715 10.76629,-4.809868 1.707655,-1.353915 3.354311,-3.081887 4.602517,-4.826127 2.325648,-3.260795 3.720225,-6.883436 4.159338,-10.815087 0.09351,-0.817228 0.130102,-3.110357 0.06101,-3.915383 C 50.082309,24.442367 49.752972,22.759115 49.20816,21.100266 47.467987,15.761836 43.804675,11.224385 38.868772,8.2888597 38.303624,7.9513978 36.90498,7.2398789 36.286968,6.9715307 31.814572,5.0402665 26.874592,4.5848944 22.178568,5.6664031 13.063001,7.772499 6.0209927,15.302397 4.6955386,24.34885 c -0.1667066,1.142498 -0.2154939,1.99632 -0.191091,3.431559 0.020336,1.309195 0.061007,1.874343 0.2114175,2.846076 0.5570136,3.565719 1.9881857,6.924088 4.183731,9.839287 0.6627317,0.878216 1.1668909,1.451498 2.0938949,2.382569 0.90261,0.898552 1.475901,1.406779 2.32159,2.053242 4.561845,3.476279 10.274332,5.070081 15.89736,4.423618 6.480928,-0.739979 12.372295,-4.370764 15.999012,-9.855555 1.939399,-2.935525 3.073762,-6.12313 3.443751,-9.676657 0.06909,-0.683058 0.06909,-3.10629 0,-3.781214 -0.28054,-2.64685 -0.955473,-5.017227 -2.081702,-7.285953 C 46.39867,18.376159 46.203512,18.002111 46.142524,17.892326 45.374083,16.542478 44.646305,15.485363 43.764022,14.424181 43.2192,13.769593 42.027906,12.557972 41.365184,11.980623 36.600036,7.8416126 30.489108,5.9875964 24.374113,6.8251597 16.799485,7.8619484 10.22505,13.009277 7.4277619,20.096005 c -0.7399704,1.87841 -1.1872175,3.866596 -1.3539149,6.001153 -0.089422,1.179092 -0.00836,3.090021 0.1911003,4.346361 0.878207,5.635229 4.1918557,10.762233 9.0423767,13.994557 1.292936,0.861957 2.760703,1.618205 4.208134,2.163027 2.500479,0.94733 4.952172,1.370174 7.643742,1.313253 1.085576,-0.02442 1.492161,-0.05284 2.358175,-0.174832 3.655179,-0.508227 7.107064,-1.992244 10.001927,-4.301641 1.195352,-0.955465 2.374435,-2.130481 3.338043,-3.338034 3.850336,-4.817992 5.228644,-11.115954 3.716157,-16.958543 C 44.621911,15.615475 38.246702,9.7606847 30.578558,8.4433557 28.679821,8.1180952 26.520871,8.077433 24.658721,8.3295126 17.571992,9.2931112 11.522053,14.009471 8.8873947,20.624558 c -1.1709581,2.935525 -1.5572073,6.175984 -1.1180945,9.351397 0.418777,3.024974 1.6954439,6.110928 3.5494518,8.578879 1.175034,1.565342 2.549275,2.939592 4.069897,4.061754 2.114221,1.569409 4.635036,2.740367 7.119256,3.301457 1.516545,0.341529 2.64685,0.463497 4.305699,0.463497 2.036982,0 3.78528,-0.272406 5.716554,-0.898543 4.094281,-1.321396 7.672202,-4.03736 10.054771,-7.627482 2.992447,-4.509001 3.817809,-9.969399 2.276861,-15.076066 C 44.316968,20.986423 43.361504,19.042957 42.255602,17.50201 40.913879,15.635801 39.214368,13.99727 37.31969,12.749063 34.928986,11.167463 32.33499,10.199798 29.517375,9.8338655 28.04555,9.6387074 26.04923,9.663101 24.553012,9.8867013 18.791738,10.756783 13.644408,14.47294 11.026019,19.64874 c -1.3661168,2.699704 -2.0207142,5.700276 -1.8621511,8.546351 0.1301116,2.402905 0.6586645,4.484608 1.6710601,6.582569 1.215678,2.524873 2.951784,4.65943 5.236779,6.432131 1.980051,1.540948 4.464271,2.703772 6.92003,3.244526 1.349848,0.296809 2.29312,0.398451 3.720225,0.398451 2.049174,0 3.590122,-0.248013 5.464465,-0.866015 3.399022,-1.130305 6.375209,-3.272987 8.542294,-6.163792 1.764567,-2.350051 2.850133,-5.029419 3.236392,-7.969011 0.08534,-0.670857 0.121977,-2.577728 0.06101,-3.277054 -0.25208,-2.789155 -1.134363,-5.322162 -2.675311,-7.680337 -0.878226,-1.337656 -2.195545,-2.801346 -3.415291,-3.797482 -3.346177,-2.728166 -7.49738,-4.106473 -11.595729,-3.850327 -4.191865,0.264272 -7.952743,1.963792 -10.900469,4.927778 -1.34578,1.349847 -2.333782,2.748491 -3.171336,4.48053 -0.84163,1.744241 -1.333588,3.521 -1.504362,5.436005 -0.05692,0.674923 -0.04875,2.163017 0.02034,2.833883 0.121977,1.207544 0.337462,2.207738 0.707452,3.338033 1.829622,5.525454 6.663883,9.74578 12.364159,10.798828 1.666993,0.309001 3.484414,0.349664 5.082283,0.121977 4.472406,-0.642405 8.477238,-3.155086 10.989919,-6.895637 1.496228,-2.228073 2.358176,-4.696024 2.553334,-7.330682 0.05284,-0.670857 0.02851,-2.08576 -0.04476,-2.703772 -0.333404,-2.805413 -1.496228,-5.557972 -3.272987,-7.745383 -2.313456,-2.846076 -5.4726,-4.765148 -8.985474,-5.464465 -0.931071,-0.187034 -1.536881,-0.252089 -2.602121,-0.276483 -1.053048,-0.02442 -1.870275,0.0325 -2.805422,0.191091 -6.476851,1.097777 -11.587586,6.342691 -12.400755,12.726025 -0.09351,0.72372 -0.121978,2.093904 -0.06509,2.829816 0.23582,2.85421 1.317329,5.537646 3.163211,7.842967 0.430978,0.540754 1.50842,1.630397 2.053241,2.077635 2.280928,1.882477 5.070082,3.045301 7.932426,3.305515 0.634261,0.06101 2.045107,0.06101 2.630581,0.0037 4.317901,-0.426911 8.188564,-2.756626 10.587401,-6.363008 1.207554,-1.81743 1.919063,-3.716166 2.20368,-5.895443 0.101642,-0.744047 0.09757,-2.443558 0,-3.171345 -0.211427,-1.565342 -0.573282,-2.789154 -1.223822,-4.155271 -0.678991,-1.41897 -1.545006,-2.634648 -2.703762,-3.797472 -1.841815,-1.845882 -4.021101,-3.081896 -6.517513,-3.691764 -1.959734,-0.483833 -4.139011,-0.504169 -6.10687,-0.06509 -3.590123,0.805026 -6.769593,3.102222 -8.668329,6.261366 -1.691386,2.813548 -2.240266,6.127188 -1.532814,9.282274 0.967666,4.3179 4.228451,7.944608 8.469104,9.416442 3.248593,1.130296 6.765525,0.894476 9.851488,-0.65053 3.606382,-1.805229 6.147523,-5.192059 6.802121,-9.05052 0.646463,-3.834077 -0.630204,-7.708807 -3.468145,-10.51422 -1.585668,-1.561275 -3.630785,-2.707839 -5.736881,-3.203873 -2.862335,-0.678991 -5.781591,-0.304934 -8.379654,1.065249 -0.512294,0.272415 -1.215687,0.727787 -1.768634,1.150632 -0.520428,0.394383 -1.581601,1.447431 -2.008512,1.988185 -2.256534,2.866402 -3.033109,6.395536 -2.154892,9.827095 0.752181,2.935516 2.756635,5.533579 5.460397,7.074527 4.923711,2.80948 11.095628,1.532814 14.519053,-3.008706 1.057115,-1.402711 1.699511,-2.890805 2.016646,-4.675698 0.121978,-0.687125 0.154505,-2.187411 0.06101,-2.907064 -0.207359,-1.577534 -0.752171,-3.073762 -1.601936,-4.391091 -0.813161,-1.264465 -2.069501,-2.500479 -3.362436,-3.31364 -0.475699,-0.300876 -1.475893,-0.788776 -1.992244,-0.9758 -3.187605,-1.150631 -6.651692,-0.711518 -9.432711,1.191285 -0.618003,0.422844 -0.979858,0.72372 -1.504353,1.248206 -1.626331,1.62633 -2.626515,3.663312 -2.907065,5.915779 -0.06101,0.508227 -0.04875,1.748299 0.02034,2.305321 0.337471,2.598054 1.768634,5.009084 3.927584,6.619155 1.398645,1.044914 3.049368,1.695444 4.789542,1.894669 0.609877,0.06909 2.093894,0.02442 2.64685,-0.07726 2.053241,-0.386258 3.75682,-1.276667 5.204251,-2.732233 0.618012,-0.613935 1.048981,-1.166891 1.475892,-1.886544 1.435239,-2.419164 1.646657,-5.379082 0.577349,-7.94055 -1.260407,-3.008706 -4.041427,-5.14733 -7.233099,-5.566107 -0.687125,-0.08942 -2.057308,-0.06101 -2.69157,0.06101 -1.870275,0.353731 -3.488471,1.219745 -4.8058,2.581795 -2.996514,3.094088 -3.2242,7.688471 -0.548889,11.00212 0.321193,0.39845 1.004261,1.057106 1.427105,1.378308 1.081509,0.817228 2.309388,1.353924 3.651111,1.593802 0.593609,0.105709 1.821479,0.126045 2.394761,0.04067 3.118491,-0.463506 5.643364,-2.561468 6.582569,-5.476667 1.057115,-3.289246 -0.365923,-6.903771 -3.419358,-8.704923 -1.931264,-1.134364 -4.281305,-1.333589 -6.334547,-0.532621 -2.195545,0.853823 -3.821875,2.659043 -4.411417,4.89525 -0.219552,0.845689 -0.256147,2.016647 -0.08534,2.87047 0.544822,2.699704 2.610256,4.777339 5.342488,5.366881 0.349663,0.07317 0.548889,0.08942 1.248206,0.08942 0.72372,0.0037 0.890418,-0.0084 1.276667,-0.09351 3.533201,-0.752181 5.801927,-4.114617 5.021294,-7.444526 -0.565148,-2.427298 -2.626523,-4.285372 -5.094475,-4.594373 -0.561081,-0.07317 -1.386443,-0.02842 -1.939398,0.09757 -1.118104,0.256147 -2.073568,0.796901 -2.866402,1.618196 -0.447247,0.463506 -0.699327,0.817228 -0.9758,1.357982 -0.386249,0.764382 -0.561081,1.496228 -0.561081,2.354118 0,0.874149 0.158563,1.53688 0.548879,2.313446 0.256147,0.508235 0.496034,0.849765 0.910754,1.280734 0.73997,0.772507 1.569399,1.236014 2.703762,1.516554 0.150438,0.03659 0.483833,0.05284 1.016462,0.05284 0.723711,-0.0037 0.825362,-0.01216 1.183151,-0.109776 1.646656,-0.447238 2.915198,-1.606004 3.435617,-3.13475 0.321202,-0.939205 0.296809,-2.126423 -0.06101,-3.01684 -0.337471,-0.837554 -0.947339,-1.601928 -1.671059,-2.093895 -1.500286,-1.016462 -3.500673,-0.983934 -4.923711,0.08942 -1.890602,1.423047 -2.138624,4.037369 -0.544812,5.663699 0.500092,0.508227 1.032712,0.825362 1.68731,1.004261 0.4879,0.130102 1.264474,0.130102 1.719846,0 1.126229,-0.321202 1.980052,-1.105911 2.329715,-2.142691 0.130102,-0.390325 0.174832,-1.032721 0.101642,-1.467767 -0.219552,-1.260398 -1.345781,-2.27686 -2.610255,-2.362243 -1.219746,-0.08134 -2.325648,0.678991 -2.659052,1.829623 -0.09351,0.329328 -0.08942,0.874149 0.01625,1.207553 0.292742,0.922937 1.053048,1.504353 1.971926,1.504353 0.520419,0 0.874149,-0.138237 1.252274,-0.483833 0.809093,-0.739979 0.662722,-2.020713 -0.284608,-2.455759 -0.248022,-0.113843 -0.731855,-0.121977 -0.943272,-0.01216 -0.491967,0.252089 -0.707461,0.776574 -0.491967,1.195351 0.203292,0.394393 0.748114,0.483833 0.971733,0.154506 0.121977,-0.178899 0.113843,-0.215485 -0.06101,-0.243946 -0.272406,-0.04875 -0.288674,-0.06101 -0.276473,-0.187033 0.0037,-0.06909 0.04476,-0.16263 0.08534,-0.207359 0.113843,-0.126036 0.422844,-0.08942 0.593609,0.06908 0.349663,0.329328 0.304934,0.821295 -0.109776,1.187218 -0.60581,0.532629 -1.549082,0.284607 -1.939399,-0.512294 -0.121977,-0.243945 -0.134179,-0.304934 -0.134179,-0.638329 0,-0.325269 0.01625,-0.394383 0.126045,-0.630203 0.32527,-0.674924 0.939205,-1.057115 1.699511,-1.057115 1.004261,0 1.849949,0.703384 2.081702,1.736106 0.25208,1.142497 -0.496025,2.345983 -1.732039,2.785087 -0.227686,0.07726 -0.345596,0.09352 -0.833496,0.09352 -0.512293,0 -0.597666,-0.01216 -0.878216,-0.109776 -1.02052,-0.357797 -1.772692,-1.219745 -1.971927,-2.260601 -0.308991,-1.605994 0.772508,-3.216065 2.467961,-3.675504 0.280541,-0.07317 0.439104,-0.08942 0.890418,-0.08942 0.654597,0.0037 1.004251,0.08543 1.565341,0.361865 1.817422,0.88635 2.598054,3.114414 1.732039,4.927778 -0.219561,0.45943 -0.451305,0.788766 -0.813169,1.154689 -0.927004,0.939205 -2.268727,1.394577 -3.56572,1.211611 -1.9516,-0.268339 -3.553527,-1.866208 -3.838144,-3.813741 -0.06909,-0.455372 -0.02841,-1.268533 0.07726,-1.683243 0.455372,-1.740173 1.809287,-3.085963 3.569787,-3.545402 1.431172,-0.374047 2.858277,-0.11791 4.159337,0.748114 0.422844,0.280541 1.085576,0.935138 1.370184,1.349848 0.451305,0.658664 0.76844,1.435239 0.890408,2.171152 0.07726,0.483832 0.05692,1.423037 -0.04067,1.870275 -0.223619,1.000194 -0.695251,1.890611 -1.398645,2.630591 -0.723711,0.756239 -1.50842,1.25634 -2.472018,1.573476 -1.118104,0.361855 -2.467951,0.353721 -3.59418,-0.0325 -2.049175,-0.69526 -3.581998,-2.402905 -4.045495,-4.517126 -0.08942,-0.410652 -0.126044,-1.557217 -0.06509,-2.000387 0.146371,-1.012395 0.544813,-1.975994 1.170959,-2.833884 0.126035,-0.170764 0.430969,-0.512293 0.67899,-0.756238 0.890418,-0.882284 1.939399,-1.455566 3.216066,-1.752366 0.451305,-0.105718 0.552946,-0.113843 1.362049,-0.113843 0.861957,-0.0037 0.967666,0.0084 1.622263,0.16263 0.601743,0.146371 1.435239,0.50416 1.988186,0.853823 0.951406,0.60581 1.86215,1.593802 2.423231,2.61839 0.333395,0.618002 0.618002,1.504352 0.719653,2.264658 0.06909,0.536688 0.02851,1.707646 -0.08134,2.199613 -0.260204,1.179092 -0.817227,2.280928 -1.626321,3.203864 -1.040855,1.195352 -2.549275,2.057309 -4.159337,2.382578 -0.398451,0.08134 -0.581417,0.09351 -1.353924,0.09351 -0.971724,-0.0037 -1.292926,-0.04476 -2.04104,-0.260214 -1.231947,-0.353722 -2.2484,-0.94733 -3.199797,-1.874343 -3.094097,-3.000572 -3.102232,-7.733191 -0.02034,-10.811011 1.223813,-1.227879 2.760694,-2.012588 4.52526,-2.309388 0.508227,-0.08543 1.882477,-0.09758 2.341917,-0.02034 1.53688,0.264281 2.728165,0.760306 3.854394,1.610071 2.289062,1.732039 3.561661,4.468339 3.34211,7.204629 -0.158564,2.004454 -0.971733,3.797482 -2.386637,5.261182 -1.370183,1.423038 -3.033099,2.301254 -5.000958,2.64685 -0.422845,0.07726 -0.678991,0.09351 -1.374251,0.09351 -1.134363,0.0037 -1.837748,-0.105708 -2.886738,-0.447237 -0.48789,-0.158573 -1.41897,-0.593609 -1.870275,-0.870082 -1.646657,-1.008328 -3.01684,-2.614332 -3.736484,-4.378899 -1.374251,-3.366494 -0.581417,-7.163976 2.049165,-9.814893 0.28055,-0.280541 0.654597,-0.626137 0.833496,-0.768441 1.423038,-1.122161 2.984312,-1.78896 4.805801,-2.057299 0.609877,-0.08942 1.874342,-0.08942 2.51268,0 2.2484,0.317136 4.208125,1.313253 5.818196,2.955851 1.504353,1.540939 2.45575,3.484405 2.744425,5.606769 0.06909,0.491958 0.06909,1.894669 0,2.398829 -0.325261,2.435433 -1.573476,4.728552 -3.455944,6.346748 -4.175606,3.598257 -10.2784,3.407166 -14.250713,-0.451305 -1.744231,-1.691377 -2.805414,-3.728359 -3.183538,-6.110928 -0.101641,-0.642396 -0.101641,-2.256534 0,-2.915198 0.365923,-2.386637 1.447432,-4.488665 3.183538,-6.188176 1.715779,-1.683252 3.797482,-2.732233 6.196319,-3.126616 0.731846,-0.121978 2.142682,-0.150438 2.907055,-0.06101 1.447441,0.170765 2.634658,0.528553 3.923517,1.187218 3.838144,1.95159 6.306096,5.903568 6.302029,10.099501 0,1.83369 -0.398451,3.464078 -1.248206,5.135137 -0.581417,1.13843 -1.240082,2.036973 -2.183344,2.980245 -1.984119,1.988186 -4.431753,3.167278 -7.241234,3.496606 -0.776574,0.08942 -2.244332,0.06101 -3.041233,-0.06509 -4.529328,-0.703394 -8.330867,-3.882864 -9.823028,-8.225158 -0.20736,-0.597676 -0.386249,-1.325464 -0.496025,-2.004455 -0.121977,-0.760306 -0.150438,-2.264659 -0.05692,-3.065627 0.321194,-2.80949 1.532814,-5.289642 3.577921,-7.342875 1.55314,-1.553149 3.423416,-2.671244 5.509185,-3.285188 1.971927,-0.57734 4.086157,-0.662732 6.131264,-0.243945 3.38683,0.69525 6.423997,2.776952 8.355261,5.728736 1.118104,1.71578 1.805229,3.659246 2.020714,5.712487 0.05284,0.50416 0.05284,1.829614 0,2.362243 -0.439104,4.509001 -3.240459,8.509766 -7.420123,10.599593 -3.862529,1.931264 -8.330867,1.902804 -12.217799,-0.07726 -3.569786,-1.813363 -6.273558,-5.196117 -7.200571,-9.001733 -0.268339,-1.105902 -0.36999,-1.984119 -0.374057,-3.15101 -0.0084,-1.849949 0.345596,-3.581988 1.069317,-5.273374 1.736106,-4.045485 5.322161,-7.111121 9.635994,-8.241417 1.801162,-0.471632 3.695831,-0.57735 5.59051,-0.304944 4.236585,0.605811 8.013731,3.081896 10.351581,6.785862 0.971732,1.53688 1.687309,3.419357 1.984118,5.212385 0.239888,1.435239 0.248022,3.057502 0.02034,4.464271 -0.861948,5.395342 -4.785465,9.961265 -10.099492,11.75836 -3.273005,1.105917 -6.781812,1.044928 -10.08326,-0.174817 -0.979867,-0.361856 -2.313455,-1.053048 -3.232324,-1.675118 -4.744821,-3.203863 -7.351009,-8.729317 -6.708613,-14.238512 0.809102,-6.956616 6.468725,-12.665036 13.539185,-13.661162 1.398644,-0.195158 3.045301,-0.195158 4.411417,0.0037 3.561661,0.512294 6.806188,2.179286 9.351396,4.797676 2.561468,2.634648 4.102416,5.911702 4.480531,9.530286 0.07726,0.744046 0.06509,2.443557 -0.02442,3.171336 -0.443171,3.683638 -2.041041,6.96476 -4.65943,9.591274 -2.825749,2.833883 -6.371142,4.509001 -10.367849,4.907451 -0.817228,0.08134 -2.614323,0.05692 -3.423416,-0.04067 -3.882865,-0.48382 -7.395739,-2.228051 -10.136097,-5.029406 -1.858083,-1.898746 -3.163211,-4.025168 -3.980439,-6.472793 -0.622079,-1.858074 -0.8741583,-3.56572 -0.8253618,-5.537646 0.061007,-2.488287 0.6301948,-4.73262 1.7727018,-6.993212 0.878216,-1.740173 1.947523,-3.191671 3.38682,-4.594383 4.403292,-4.305707 10.595536,-5.9808249 16.51944,-4.468338 1.849949,0.471641 3.724292,1.297002 5.326228,2.354117 3.675495,2.419155 6.363008,6.106861 7.460776,10.237738 0.626146,2.358176 0.735922,4.854588 0.321203,7.245291 -0.609868,3.500673 -2.276861,6.728931 -4.830195,9.347329 -5.509185,5.63523 -13.87258,7.139583 -20.943048,3.756811 C 13.286434,41.217108 9.3181874,35.882745 8.4806334,29.914121 8.3301953,28.820411 8.3017345,28.344712 8.3261281,27.100573 8.3505496,25.6572 8.4562398,24.75459 8.7449052,23.490125 9.2165459,21.408422 10.098829,19.347047 11.302307,17.513366 14.311021,12.939309 19.226598,9.8086269 24.57722,9.0605223 c 1.935331,-0.2683483 3.850336,-0.2480218 5.732804,0.061007 3.065636,0.5041686 5.9727,1.7605087 8.497573,3.6714367 0.776575,0.589551 1.252274,1.008328 2.057309,1.809297 1.577534,1.577543 2.703763,3.151009 3.675495,5.127003 1.069317,2.183343 1.662926,4.3179 1.870285,6.757391 0.07317,0.84163 0.0325,2.768827 -0.07726,3.610449 -0.557014,4.297574 -2.431356,8.115382 -5.496993,11.201345 -3.980439,4.004832 -9.396107,6.147523 -14.897167,5.895444 C 23.056608,47.063783 20.580522,46.429521 18.01091,45.160979 15.896689,44.120133 14.270359,42.953242 12.58304,41.261856 11.00144,39.680255 9.8548746,38.110846 8.8831418,36.195842 6.7973817,32.097493 6.2281665,27.653548 7.2161587,23.205536 8.025252,19.5463 9.9931206,16.053761 12.794467,13.301202 16.282938,9.8696434 20.65776,7.8529969 25.573346,7.4057592 c 0.918879,-0.081343 2.988379,-0.061007 3.862529,0.040671 3.191671,0.3781242 6.110937,1.3986442 8.786239,3.0778288 1.910937,1.199419 3.728368,2.801355 5.122936,4.509001 3.809683,4.675688 5.379082,10.493884 4.382956,16.263283 -1.467758,8.509766 -8.424384,15.466382 -17.092713,17.092713 -1.4637,0.272415 -2.126422,0.329336 -3.923517,0.329336 -1.614138,-0.0037 -2.04104,-0.0325 -3.293313,-0.227686 C 17.543346,47.572028 12.143937,44.087624 8.7652316,39.05007 7.3422032,36.923648 6.2891552,34.508541 5.715873,32.036523 4.8823768,28.458602 5.0450163,24.612333 6.1834372,21.091333 6.8380346,19.062485 7.9358119,16.879142 9.1596151,15.175563 12.099217,11.093475 16.25042,8.1294888 21.039952,6.7023931 23.95515,5.8323019 26.967923,5.5964815 30.106741,5.9908743 c 3.00058,0.3740476 6.143456,1.5043528 8.84316,3.1794703 2.720031,1.6873094 5.143263,4.0251584 6.928156,6.6882764 1.439306,2.146749 2.581804,4.769206 3.130683,7.163977 0.414719,1.817421 0.552956,3.0453 0.548889,4.919643 0,1.309195 -0.03659,1.845882 -0.199226,2.996514 -0.796901,5.566106 -3.777146,10.680908 -8.35526,14.327952 -3.541335,2.821682 -7.773854,4.521202 -12.339776,4.944046 -0.731845,0.06909 -3.110347,0.06909 -3.842202,0 C 19.438024,49.710652 14.563101,47.466319 10.65991,43.697298 6.8299096,39.997409 4.3782175,35.114351 3.7846087,29.995483 3.5691149,28.169927 3.5975756,26.043505 3.861866,24.242343 4.3416317,20.94903 5.5654442,17.777684 7.4641805,14.927551 9.289736,12.183117 11.75362,9.7720783 14.56311,7.987185 19.775496,4.6694781 25.947412,3.5229136 31.95669,4.7507932 c 7.192446,1.471825 13.433485,6.2776258 16.730866,12.8845968 1.31732,2.638706 2.057299,5.236769 2.3663,8.273945 0.06909,0.707452 0.06909,3.281112 0,3.984506 -0.317126,3.159144 -1.126228,5.907636 -2.532997,8.631734 -3.382772,6.558175 -9.717319,11.339582 -16.970745,12.811407 -2.711906,0.548889 -5.533588,0.626137 -8.314608,0.227686 C 19.726699,51.056442 16.246362,49.718786 13.192927,47.70214 10.371245,45.839989 7.9195526,43.380172 6.0533442,40.546289 4.2440573,37.79373 2.9958419,34.683373 2.4428954,31.540498 2.162355,29.950763 2.0769727,28.779804 2.1054335,26.966441 c 0.020336,-1.341713 0.069086,-1.96785 0.2317532,-3.049359 1.097768,-7.229031 5.5132522,-13.705891 11.9941703,-17.592813 2.829807,-1.699511 6.070275,-2.858277 9.290398,-3.3217742 1.374251,-0.1992253 1.788961,-0.2236189 3.618584,-0.2236189 1.390509,0 1.882477,0.012164 2.398837,0.069086 3.232325,0.3537305 5.972692,1.1384304 8.741519,2.5086138 2.626515,1.2969933 4.789542,2.8501427 6.875302,4.9359025 0.951406,0.955474 1.654791,1.756432 2.386636,2.728165 2.565535,3.415291 4.216259,7.351009 4.801743,11.445291 0.182956,1.272609 0.20735,1.687319 0.20735,3.455953 -0.0037,1.801162 -0.02841,2.187411 -0.223619,3.537268 -1.402702,9.558746 -8.526025,17.751377 -18.011591,20.71942 -2.252467,0.703394 -4.557788,1.089643 -6.89157,1.150632 l -0.975791,0.02442 -0.01216,0.361856 -0.01216,0.361865 0.906686,-0.02442 c 4.061754,-0.11791 7.871428,-1.097777 11.481877,-2.95586 4.622843,-2.374435 8.550428,-6.119054 11.107829,-10.591459 1.837747,-3.220133 2.911122,-6.61103 3.285188,-10.388176 0.08942,-0.894485 0.101641,-3.305515 0.02442,-4.187798 C 53.082807,23.160806 52.464804,20.640001 51.432083,18.184241 48.679524,11.634201 43.284172,6.397422 36.595895,3.7830996 34.375965,2.9170754 31.97306,2.3519275 29.517301,2.1242414 28.870838,2.0632342 26.56145,2.0103984 26.041022,2.0469842 Z"
   id="path119"
   style="fill:#000000;stroke:none;stroke-width:0.00406581" /></svg>
