<?xml version="1.0" encoding="UTF-8" standalone="no"?>
<svg
   height="112"
   width="112"
   id="svg14"
   xml:space="preserve"
   enable-background="new 0 0 1000 1000"
   viewBox="0 0 112 112"
   y="0px"
   x="0px"
   version="1.1"
   sodipodi:docname="icon-112-112.svg"
   inkscape:version="1.1 (c4e8f9e, 2021-05-24)"
   xmlns:inkscape="http://www.inkscape.org/namespaces/inkscape"
   xmlns:sodipodi="http://sodipodi.sourceforge.net/DTD/sodipodi-0.dtd"
   xmlns="http://www.w3.org/2000/svg"
   xmlns:svg="http://www.w3.org/2000/svg"
   xmlns:rdf="http://www.w3.org/1999/02/22-rdf-syntax-ns#"
   xmlns:cc="http://creativecommons.org/ns#"
   xmlns:dc="http://purl.org/dc/elements/1.1/"><sodipodi:namedview
   pagecolor="#ffffff"
   bordercolor="#666666"
   borderopacity="1"
   objecttolerance="10"
   gridtolerance="10"
   guidetolerance="10"
   inkscape:pageopacity="0"
   inkscape:pageshadow="2"
   inkscape:window-width="1848"
   inkscape:window-height="1016"
   id="namedview10"
   showgrid="false"
   inkscape:zoom="2.5189401"
   inkscape:cx="41.08871"
   inkscape:cy="100.24057"
   inkscape:window-x="72"
   inkscape:window-y="27"
   inkscape:window-maximized="1"
   inkscape:current-layer="svg14"
   inkscape:pagecheckerboard="0" /><defs
   id="defs18" />
<metadata
   id="metadata2"> Svg Vector Icons : http://www.onlinewebfonts.com/icon <rdf:RDF><cc:Work
     rdf:about=""><dc:format>image/svg+xml</dc:format><dc:type
       rdf:resource="http://purl.org/dc/dcmitype/StillImage" /></cc:Work></rdf:RDF></metadata>

<rect
   style="fill:#000000;stroke-width:0"
   id="rect1833"
   width="104.71604"
   height="101.97987"
   x="3.6419792"
   y="5.0100632"
   ry="2.41682" /><path
   d="m 171.71765,0.5203805 c -0.21347,0.0142 -0.83965,0.05688 -1.38757,0.09963 -8.12615,0.626183 -16.01748,3.500937 -22.7703,8.289813 -9.62047,6.8239725 -16.25943,17.0777385 -18.31587,28.2849985 -0.51234,2.77513 -0.676,4.675023 -0.68311,7.684978 0,2.575896 0.0569,3.472472 0.3629,5.763741 1.07447,8.005178 4.51848,15.718617 9.86239,22.101421 7.45016,8.880418 17.98143,14.580092 29.30253,15.86097 3.44402,0.384196 7.67787,0.313028 11.13612,-0.185011 18.35856,-2.654195 33.42966,-16.906976 36.92351,-34.902633 0.49097,-2.533197 0.71152,-4.973886 0.70438,-7.855759 0,-2.867642 -0.2277,-5.201593 -0.74002,-7.791718 -1.416,-7.087262 -4.48999,-13.441608 -9.28599,-19.212456 -0.98908,-1.195437 -4.07019,-4.269424 -5.25852,-5.258514 -4.88138,-4.0630795 -10.14702,-6.8737785 -16.04596,-8.5815515 -2.46202,-0.71158 -5.10908,-1.209679 -8.00517,-1.508545 -1.42315,-0.142308 -6.29742,-0.120967 -7.75615,0.03558 -5.45063,0.590599 -10.11143,1.942596 -14.83627,4.290779 -4.31925,2.148944 -7.9198,4.7461825 -11.3567,8.1759615 -4.77464,4.767535 -8.16885,10.218175 -10.23952,16.437319 -1.42315,4.283661 -2.04933,8.133276 -2.04933,12.630408 0,2.789365 0.16367,4.653684 0.6333,7.258031 1.51565,8.339633 5.8847,16.344819 12.21058,22.364713 9.67027,9.207745 22.77742,13.292171 35.64976,11.114759 6.81688,-1.152749 13.36333,-4.077311 18.84244,-8.417889 2.98859,-2.369546 5.87047,-5.393725 8.055,-8.446369 4.07018,-5.706807 6.51088,-12.046913 7.27938,-18.927813 0.16366,-1.430264 0.22769,-5.443533 0.10674,-6.852447 -0.26328,-3.258995 -0.83966,-6.204904 -1.79316,-9.108125 -3.04553,-9.342934 -9.4568,-17.28409 -18.09529,-22.42164 -0.98908,-0.590598 -3.43689,-1.8358495 -4.51849,-2.3054945 -7.82728,-3.379958 -16.47289,-4.176924 -24.69154,-2.284143 -15.95345,3.6859425 -28.27788,16.8642555 -30.59761,32.6967485 -0.29175,1.999512 -0.37714,3.493822 -0.33443,6.005673 0.0355,2.29125 0.10673,3.280334 0.37001,4.980995 0.97486,6.240487 3.47959,12.118073 7.32208,17.220045 1.15986,1.536999 2.0422,2.540318 3.6646,4.169821 1.57969,1.57257 2.583,2.462033 4.06307,3.593431 7.98385,6.083947 17.98143,8.873302 27.82248,7.741904 11.34246,-1.295069 21.65313,-7.649398 28.00036,-17.2485 3.39419,-5.137562 5.37948,-10.716285 6.02702,-16.935422 0.12096,-1.195448 0.12096,-5.436418 0,-6.617621 -0.49099,-4.632335 -1.6722,-8.780802 -3.64325,-12.75137 -0.30599,-0.611954 -0.64754,-1.2666 -0.75427,-1.45872 -1.34488,-2.362425 -2.61858,-4.212512 -4.1627,-6.069716 -0.9535,-1.145632 -3.03841,-3.266116 -4.19827,-4.276552 C 190.19719,10.660277 179.50225,7.4155245 168.8002,8.8813525 155.54362,10.695866 144.03749,19.704369 139.14188,32.107075 c -1.29506,3.287458 -2.0778,6.767045 -2.36955,10.502797 -0.15654,2.063571 -0.0142,5.407954 0.33445,7.606714 1.537,9.862387 7.3363,18.835316 15.82536,24.492314 2.26281,1.508529 4.83158,2.832057 7.36477,3.78556 4.37617,1.657961 8.66696,2.398 13.37757,2.298374 1.89989,-0.04268 2.61146,-0.09248 4.12711,-0.305976 6.39704,-0.889465 12.43829,-3.486696 17.50468,-7.528427 2.09202,-1.672199 4.15558,-3.728629 5.84201,-5.842001 6.73859,-8.432138 9.15082,-19.454385 6.50377,-29.679678 -3.41555,-13.171197 -14.573,-23.417845 -27.99326,-25.723338 -3.32304,-0.569257 -7.10148,-0.640415 -10.36049,-0.199237 -12.40269,1.686418 -22.99089,9.940664 -27.60188,21.517943 -2.04933,5.137543 -2.72532,10.808782 -1.95681,16.366155 0.73291,5.294106 2.96725,10.694943 6.21202,15.014174 2.05644,2.739558 4.46155,5.144663 7.12283,7.108605 3.70018,2.746671 8.11192,4.796002 12.45963,5.777962 2.65416,0.597729 4.63233,0.811206 7.53555,0.811206 3.56498,0 6.62473,-0.47676 10.0047,-1.572586 7.16554,-2.312607 13.42737,-7.065904 17.59719,-13.349089 5.23717,-7.89134 6.68166,-17.447752 3.9848,-26.3851 -0.95351,-3.138035 -2.6257,-6.539346 -4.56118,-9.236195 -2.34818,-3.266123 -5.32257,-6.133766 -8.63848,-8.31829 -4.18404,-2.768012 -8.72389,-4.461561 -13.65508,-5.101976 -2.57589,-0.341549 -6.06971,-0.298862 -8.6883,0.09248 -10.08298,1.522775 -19.09148,8.02653 -23.67399,17.084851 -2.39089,4.724838 -3.53651,9.976236 -3.25901,14.95724 0.22771,4.205389 1.15275,7.848633 2.92457,11.520357 2.12759,4.418867 5.16601,8.154618 9.16504,11.257072 3.46536,2.696861 7.81306,4.731948 12.11095,5.678351 2.36243,0.519442 4.01327,0.697333 6.5109,0.697333 3.58632,0 6.28318,-0.434054 9.56353,-1.515652 5.94874,-1.97816 11.15745,-5.72815 14.95013,-10.787421 3.08822,-4.112893 4.98811,-8.802149 5.66412,-13.94682 0.14942,-1.174095 0.21346,-4.511363 0.10673,-5.735272 -0.44118,-4.881373 -1.98529,-9.314463 -4.68215,-13.441588 -1.53699,-2.34106 -3.84249,-4.902722 -5.9772,-6.646074 -5.85625,-4.774654 -13.12139,-7.186884 -20.29404,-6.738591 -7.33631,0.462521 -13.91835,3.436894 -19.07725,8.624253 -2.35531,2.362419 -4.08442,4.810232 -5.55026,7.841531 -1.47296,3.052637 -2.33396,6.162206 -2.63283,9.513712 -0.0996,1.181214 -0.0854,3.785568 0.0355,4.959661 0.21347,2.11337 0.59061,3.863837 1.23813,5.842015 3.20209,9.670257 11.66267,17.056381 21.63893,18.899357 2.91743,0.540793 6.09816,0.611944 8.89463,0.213469 7.8273,-1.124285 14.83628,-5.5218 19.2338,-12.068268 2.61859,-3.899412 4.12712,-8.218653 4.46867,-12.829651 0.0925,-1.174089 0.0498,-3.650359 -0.0782,-4.731946 -0.58348,-4.909849 -2.61857,-9.727192 -5.72814,-13.555445 -4.04885,-4.98101 -9.57777,-8.339627 -15.72575,-9.563531 -1.6295,-0.327324 -2.68974,-0.441172 -4.55406,-0.483869 -1.84298,-0.04268 -3.27323,0.05691 -4.90985,0.334441 -11.33535,1.921247 -20.27981,11.100527 -21.70295,22.27221 -0.16366,1.266602 -0.21347,3.664602 -0.11385,4.952538 0.41271,4.995239 2.30549,9.691617 5.53603,13.726227 0.75427,0.946393 2.63994,2.85341 3.59344,3.636127 3.99193,3.294591 8.8733,5.329693 13.88277,5.785091 1.11005,0.106736 3.5792,0.106736 4.60387,0.008 7.55691,-0.747149 14.33107,-4.824452 18.52935,-11.136105 2.11336,-3.180726 3.35861,-6.503764 3.85672,-10.317798 0.17788,-1.302173 0.17077,-4.276547 0,-5.550262 -0.36999,-2.739866 -1.00329,-4.881704 -2.14182,-7.272584 -1.1883,-2.483387 -2.70396,-4.610983 -4.73195,-6.64608 -3.22341,-3.230579 -7.03743,-5.393759 -11.40649,-6.461112 -3.42977,-0.846769 -7.2438,-0.882348 -10.68781,-0.113849 -6.28319,1.408905 -11.84768,5.429287 -15.17072,10.958212 -2.96014,4.924077 -3.92076,10.723392 -2.68263,16.245185 1.69355,7.5569 7.40036,13.904118 14.82205,16.480013 5.68546,1.978165 11.84056,1.565466 17.24139,-1.138506 6.31165,-3.159396 10.75897,-9.086789 11.90461,-15.839611 1.1314,-6.710182 -1.10294,-13.491465 -6.06971,-18.401311 -2.77513,-2.732438 -6.35434,-4.739078 -10.04028,-5.607199 -5.00947,-1.188318 -10.11856,-0.533683 -14.66551,1.864331 -0.89658,0.476746 -2.1276,1.273713 -3.09534,2.013742 -0.91081,0.690227 -2.76801,2.533195 -3.51516,3.479592 -3.94923,5.016577 -5.30833,11.193027 -3.77134,17.198696 1.31641,5.137556 4.82446,9.684499 9.55641,12.381351 8.61715,4.916973 19.41881,2.682631 25.41025,-5.265621 1.85009,-2.45493 2.97437,-5.05929 3.52939,-8.183081 0.21348,-1.202571 0.27041,-3.828268 0.10674,-5.087745 -0.3629,-2.760911 -1.31641,-5.379488 -2.80359,-7.68499 -1.42315,-2.212987 -3.62191,-4.376168 -5.88471,-5.799314 -0.83254,-0.52656 -2.583,-1.380455 -3.48669,-1.707773 -5.57873,-2.013747 -11.64132,-1.245247 -16.50848,2.084911 -1.08158,0.740028 -1.71489,1.2666 -2.63282,2.184524 -2.84629,2.846287 -4.59674,6.411256 -5.08774,10.353377 -0.10674,0.889468 -0.0854,3.059767 0.0355,4.034612 0.5906,4.546937 3.09533,8.766571 6.87378,11.584392 2.44781,1.828749 5.33679,2.967264 8.38233,3.315929 1.06735,0.120963 3.66458,0.04268 4.63233,-0.135202 3.59345,-0.675988 6.57492,-2.234333 9.10812,-4.78176 1.0816,-1.074469 1.83585,-2.042212 2.58301,-3.301696 2.51184,-4.233856 2.88186,-9.414111 1.01043,-13.897013 -2.20588,-5.265629 -7.07304,-9.008504 -12.65887,-9.74142 -1.20256,-0.156544 -3.60056,-0.106739 -4.71061,0.10673 -3.27324,0.619072 -6.10529,2.134717 -8.41079,4.518487 -5.24429,5.415059 -5.64276,13.455829 -0.96061,19.255142 0.56215,0.697337 1.75758,1.850085 2.49762,2.412233 1.89277,1.430258 4.04172,2.369539 6.38991,2.789361 1.0389,0.185013 3.18784,0.220591 4.19116,0.07117 5.45777,-0.811255 9.87664,-4.482967 11.52037,-9.584951 1.8501,-5.756608 -0.64042,-12.082482 -5.98433,-15.234755 -3.37997,-1.985281 -7.49285,-2.333952 -11.08629,-0.93216 -3.8425,1.494301 -6.68878,4.653691 -7.72055,8.567336 -0.38424,1.480065 -0.4483,3.529394 -0.14944,5.0237 0.95351,4.724833 4.56829,8.36097 9.35006,9.392743 0.61195,0.128076 0.96062,0.156548 2.18453,0.156548 1.2666,0.008 1.55834,-0.01419 2.23434,-0.163655 6.18355,-1.316418 10.15412,-7.201116 8.78791,-13.02889 -0.98909,-4.248093 -4.59675,-7.499975 -8.916,-8.040767 -0.98196,-0.128084 -2.42646,-0.04981 -3.3942,0.170779 -1.95683,0.448288 -3.62901,1.394681 -5.01657,2.83205 -0.78274,0.811205 -1.22391,1.430268 -1.70778,2.376653 -0.676,1.337761 -0.98197,2.618587 -0.98197,4.120005 0,1.529884 0.27751,2.689753 0.96062,4.048845 0.44829,0.889467 0.86811,1.487196 1.59392,2.241457 1.29506,1.351978 2.74667,2.163178 4.73196,2.654161 0.26328,0.0641 0.84677,0.09249 1.77893,0.09249 1.26659,-0.008 1.44449,-0.02142 2.07067,-0.192124 2.88187,-0.782734 5.10197,-2.810705 6.01278,-5.486224 0.56216,-1.643729 0.51945,-3.721522 -0.10673,-5.279869 -0.59061,-1.465831 -1.65797,-2.803583 -2.92456,-3.664591 -2.6257,-1.778928 -6.12664,-1.722006 -8.61714,0.156551 -3.30882,2.490498 -3.74288,7.065908 -0.95352,9.912196 0.87525,0.889466 1.80741,1.444486 2.95305,1.757581 0.85387,0.2277 2.21298,0.2277 3.00994,0 1.97105,-0.562144 3.46534,-1.93548 4.0773,-3.749981 0.2277,-0.683117 0.30598,-1.807396 0.1779,-2.56878 -0.38424,-2.205872 -2.3553,-3.9848 -4.56829,-4.134234 -2.13472,-0.142303 -4.0702,1.188332 -4.65369,3.202074 -0.16366,0.57638 -0.15654,1.529884 0.0285,2.113382 0.51233,1.615258 1.84297,2.632802 3.45114,2.632802 0.9108,0 1.52986,-0.241923 2.19163,-0.846767 1.41603,-1.295056 1.15987,-3.536513 -0.4981,-4.297891 -0.43406,-0.199248 -1.28083,-0.213465 -1.65085,-0.02132 -0.861,0.441173 -1.23814,1.359097 -0.861,2.092012 0.35578,0.690231 1.3093,0.846773 1.70066,0.270398 0.21346,-0.313088 0.19924,-0.377133 -0.10674,-0.426938 -0.47675,-0.08539 -0.50523,-0.106736 -0.48387,-0.327328 0.008,-0.120967 0.0782,-0.284627 0.14943,-0.362896 0.19924,-0.220591 0.74003,-0.156551 1.0389,0.120967 0.61195,0.57637 0.53368,1.437367 -0.19213,2.077788 -1.06024,0.932164 -2.71109,0.498094 -3.3942,-0.896593 -0.21347,-0.426936 -0.23481,-0.533668 -0.23481,-1.117155 0,-0.569257 0.0285,-0.690224 0.22058,-1.102941 0.56925,-1.181207 1.64373,-1.850084 2.97437,-1.850084 1.75758,0 3.23765,1.231017 3.64325,3.038418 0.44118,1.999512 -0.86812,4.10576 -3.0313,4.874266 -0.39848,0.135202 -0.60483,0.16366 -1.45871,0.16366 -0.89659,0 -1.04602,-0.02132 -1.537,-0.192124 -1.78605,-0.626192 -3.10245,-2.134718 -3.45113,-3.956341 -0.5408,-2.810712 1.35199,-5.628545 4.31924,-6.432618 0.49098,-0.12808 0.7685,-0.156532 1.55834,-0.156532 1.14563,0.008 1.7576,0.149419 2.73956,0.633296 3.18073,1.551218 4.54695,5.450637 3.03129,8.624255 -0.38424,0.804069 -0.78984,1.380444 -1.42313,2.020863 -1.6224,1.643727 -3.97058,2.440683 -6.2405,2.120481 -3.41555,-0.469634 -6.21914,-3.266115 -6.71724,-6.674541 -0.12097,-0.796965 -0.0498,-2.220107 0.1352,-2.945916 0.79697,-3.045532 3.16649,-5.400833 6.24761,-6.204907 2.50473,-0.654647 5.00235,-0.206362 7.27938,1.309287 0.74004,0.490987 1.8999,1.636619 2.398,2.362428 0.78984,1.152748 1.34487,2.511847 1.55834,3.799793 0.13519,0.846776 0.0996,2.490503 -0.0712,3.273229 -0.39135,1.75047 -1.21677,3.308803 -2.4478,4.603873 -1.26659,1.32352 -2.63992,2.198758 -4.32636,2.753785 -1.95682,0.633296 -4.31925,0.619057 -6.29029,-0.0569 -3.58633,-1.216791 -6.26896,-4.205391 -7.08015,-7.905556 -0.15654,-0.718696 -0.22059,-2.725331 -0.11385,-3.500942 0.25617,-1.771815 0.95351,-3.458236 2.04933,-4.959663 0.22058,-0.29886 0.75427,-0.896574 1.18832,-1.323525 1.55835,-1.5441 3.3942,-2.547429 5.62854,-3.066867 0.78985,-0.185006 0.96774,-0.199248 2.38377,-0.199248 1.50853,-0.008 1.69354,0.01417 2.83917,0.284632 1.05313,0.256164 2.51185,0.882346 3.47959,1.49431 1.66508,1.060235 3.259,2.789362 4.24097,4.582514 0.58349,1.081589 1.08159,2.632816 1.25948,3.963458 0.12097,0.939273 0.0498,2.988604 -0.14232,3.849609 -0.4554,2.063566 -1.43025,3.991921 -2.84629,5.60719 -1.82162,2.092014 -4.46155,3.600552 -7.27938,4.169811 -0.69733,0.142312 -1.01755,0.16366 -2.36953,0.16366 -1.70066,-0.008 -2.2628,-0.07824 -3.57209,-0.455399 -2.15606,-0.61908 -3.935,-1.657975 -5.60008,-3.280359 -5.41506,-5.251399 -5.42929,-13.534093 -0.0355,-18.920699 2.14183,-2.148944 4.83158,-3.522283 7.9198,-4.041728 0.88946,-0.149439 3.29458,-0.17078 4.09866,-0.03552 2.68974,0.462533 4.77465,1.330636 6.7457,2.817833 4.00615,3.031296 6.23336,7.820168 5.84912,12.609058 -0.27751,3.508047 -1.70066,6.646084 -4.17692,9.20773 -2.39801,2.490515 -5.30834,4.027515 -8.75235,4.632342 -0.74003,0.135203 -1.18833,0.16367 -2.40511,0.16367 -1.98528,0.008 -3.2163,-0.185007 -5.05216,-0.782737 -0.85389,-0.27751 -2.48339,-1.0389 -3.27323,-1.522765 -2.88187,-1.764696 -5.27988,-4.575412 -6.53936,-7.663632 -2.4051,-5.891815 -1.01754,-12.537899 3.58633,-17.177349 0.49099,-0.490989 1.14563,-1.095828 1.45872,-1.344877 2.49051,-1.963943 5.22294,-3.130914 8.41079,-3.600551 1.06736,-0.156542 3.28035,-0.156542 4.39751,0 3.935,0.555024 7.36477,2.298378 10.18261,5.173127 2.63281,2.69686 4.29789,6.098175 4.8031,9.812588 0.12097,0.860997 0.12097,3.315912 0,4.198267 -0.56926,4.262319 -2.75378,8.275593 -6.04836,11.107638 -7.30784,6.297431 -17.98854,5.962984 -24.94061,-0.789838 -3.05264,-2.960129 -4.90985,-6.525112 -5.5716,-10.694926 -0.1779,-1.124285 -0.1779,-3.949221 0,-5.101972 0.6404,-4.176923 2.53319,-7.855758 5.5716,-10.830123 3.00284,-2.94592 6.64609,-4.781769 10.84437,-5.471995 1.28081,-0.213477 3.74997,-0.263281 5.08773,-0.10673 2.53319,0.298855 4.61099,0.925033 6.86667,2.077788 6.71725,3.415547 11.03649,10.332028 11.02937,17.675442 0,3.209195 -0.69734,6.062595 -2.18452,8.987163 -1.01754,1.992408 -2.1703,3.564974 -3.82115,5.215823 -3.47246,3.479588 -7.75614,5.543155 -12.67309,6.119521 -1.35911,0.156548 -3.92789,0.106741 -5.32256,-0.113849 -7.92692,-1.23105 -14.58011,-6.795547 -17.19159,-14.39514 -0.3629,-1.046002 -0.67598,-2.319721 -0.86811,-3.508046 -0.21348,-1.33064 -0.26328,-3.963459 -0.0996,-5.365256 0.56214,-4.916959 2.68264,-9.257558 6.26183,-12.850989 2.71821,-2.718213 5.99145,-4.675028 9.64181,-5.749503 3.45113,-1.010434 7.1513,-1.159869 10.73051,-0.42694 5.92739,1.216779 11.24283,4.860034 14.62281,10.026038 1.95682,3.002842 3.15938,6.404145 3.53651,9.997602 0.0925,0.882345 0.0925,3.202067 0,4.134224 -0.76852,7.891272 -5.67124,14.893145 -12.98621,18.550628 -6.75996,3.379938 -14.58014,3.330127 -21.38275,-0.135223 -6.24762,-3.173615 -10.97957,-9.093888 -12.60195,-15.75421 -0.46964,-1.935472 -0.64753,-3.472476 -0.65465,-5.514689 -0.0142,-3.237647 0.60484,-6.268954 1.87143,-9.229091 3.03841,-7.080135 9.31448,-12.445392 16.86426,-14.423562 3.15228,-0.825421 6.4682,-1.010429 9.78413,-0.533684 7.41457,1.060241 14.02508,5.393717 18.11662,11.876147 1.70065,2.689734 2.95302,5.984321 3.47247,9.122353 0.41983,2.511848 0.43406,5.351018 0.0355,7.81305 -1.50851,9.442473 -8.37519,17.433436 -17.67543,20.57859 -5.72816,1.935478 -11.86903,1.828748 -17.647,-0.305967 -1.71488,-0.633337 -4.04883,-1.843011 -5.65699,-2.931721 -8.30402,-5.607176 -12.8652,-15.277445 -11.74092,-24.919255 1.41603,-12.175006 11.32112,-22.165474 23.69536,-23.908821 2.44781,-0.34155 5.32968,-0.34155 7.72056,0.008 6.23336,0.89658 11.91172,3.814024 16.36616,8.396557 4.48291,4.610986 7.17976,10.346249 7.84152,16.679252 0.13521,1.302172 0.11385,4.27654 -0.0427,5.55026 -0.7756,6.446841 -3.57208,12.189231 -8.15461,16.785984 -4.94542,4.959658 -11.15033,7.89134 -18.14508,8.588675 -1.43026,0.142314 -4.57541,0.09962 -5.99144,-0.07112 -6.79553,-0.84701 -12.94352,-3.899654 -17.73951,-8.802378 -3.25189,-3.323045 -5.53604,-7.044568 -6.96629,-11.328236 -1.08871,-3.251879 -1.52988,-6.240481 -1.44449,-9.691614 0.10673,-4.354818 1.10293,-8.282696 3.10245,-12.239048 1.53699,-3.045521 3.40844,-5.585838 5.92739,-8.040758 7.70634,-7.535546 18.54359,-10.467222 28.91118,-7.820171 3.23766,0.825422 6.518,2.269907 9.32161,4.120001 6.4326,4.23385 11.1361,10.687813 13.05734,17.917386 1.09582,4.127117 1.28795,8.496174 0.56214,12.680216 -1.06735,6.126487 -3.9848,11.776372 -8.45347,16.358897 -9.6418,9.862148 -24.27885,12.494968 -36.65308,6.574687 -9.79835,-4.682178 -16.74329,-14.01801 -18.20914,-24.463879 -0.26328,-1.914135 -0.31309,-2.746681 -0.2704,-4.924081 0.0427,-2.52608 0.22771,-4.105775 0.73293,-6.318762 0.82542,-3.643245 2.36953,-7.250918 4.47578,-10.460118 5.26564,-8.005181 13.86854,-13.484293 23.23284,-14.793582 3.38707,-0.469632 6.73858,-0.434054 10.03317,0.106732 5.36525,0.88235 10.45298,3.081105 14.87185,6.425504 1.3591,1.031777 2.19164,1.764699 3.60056,3.166497 2.76089,2.760898 4.73195,5.514677 6.43261,8.97292 1.87144,3.821151 2.91032,7.556896 3.27323,11.826331 0.12809,1.472958 0.0569,4.845801 -0.1352,6.318756 -0.97485,7.521317 -4.25519,14.202984 -9.62046,19.603819 -6.96628,7.008981 -16.44443,10.758963 -26.07199,10.317798 -5.04505,-0.227699 -9.37853,-1.337755 -13.87567,-3.557859 -3.70017,-1.821622 -6.54646,-3.863838 -9.49949,-6.823977 -2.76801,-2.768024 -4.77464,-5.51469 -6.47529,-8.866193 -3.65038,-7.17265 -4.64659,-14.950128 -2.91746,-22.734737 1.41604,-6.404148 4.86003,-12.516546 9.76277,-17.333888 6.10529,-6.005674 13.76181,-9.535069 22.36471,-10.3178015 1.60817,-0.14231 5.23006,-0.106739 6.75994,0.07117 5.58584,0.6617635 10.69494,2.4478055 15.37708,5.3865965 3.34439,2.099135 6.52512,4.902737 8.96581,7.891341 6.66743,8.183074 9.4141,18.365676 7.67075,28.462889 -2.56878,14.893204 -14.74378,27.0682 -29.9145,29.914485 -2.56166,0.476757 -3.72152,0.576381 -6.86667,0.576381 -2.82494,-0.008 -3.57209,-0.05689 -5.76373,-0.39849 -10.28222,-1.608274 -19.7319,-7.706441 -25.64507,-16.52282 -2.4905,-3.721531 -4.33347,-7.948263 -5.33679,-12.274626 -1.45872,-6.261835 -1.17408,-12.993307 0.81831,-19.155518 1.14563,-3.55075 3.06688,-7.371894 5.20871,-10.353379 5.14467,-7.144179 12.40982,-12.331549 20.79214,-14.8291555 5.10198,-1.522771 10.37472,-1.93548 15.86806,-1.245261 5.25141,0.654651 10.75185,2.6328125 15.47669,5.5644995 4.76043,2.953021 9.0014,7.044572 12.1252,11.705359 2.51896,3.757104 4.51848,8.346741 5.4791,12.537897 0.7258,3.180737 0.96775,5.329677 0.96063,8.610032 0,2.291253 -0.0641,3.230527 -0.34868,5.244287 -1.39467,9.741418 -6.6105,18.693006 -14.6228,25.075796 -6.19779,4.938316 -13.60526,7.912679 -21.59621,8.652721 -1.28084,0.120962 -5.44353,0.120962 -6.72437,0 -9.42121,-0.875219 -17.95296,-4.803105 -24.78405,-11.399374 -6.70301,-6.475322 -10.9938,-15.021293 -12.03269,-23.979984 -0.37713,-3.194965 -0.32732,-6.91648 0.1352,-10.068748 0.83964,-5.763735 2.98149,-11.314002 6.30452,-16.302121 3.19497,-4.80311 7.50709,-9.02274 12.42406,-12.146542 9.12235,-5.8064195 19.92402,-7.8130525 30.44105,-5.6640985 12.58771,2.575881 23.51035,10.9866615 29.2812,22.5497165 2.30549,4.618099 3.60056,9.165042 4.14135,14.480492 0.12096,1.238128 0.12096,5.742383 0,6.973416 -0.55503,5.528903 -1.97105,10.339124 -4.4331,15.106669 -5.92027,11.477655 -17.00657,19.845737 -29.70102,22.42165 -4.74619,0.960583 -9.68449,1.095769 -14.55164,0.398476 -6.14087,-0.889477 -12.23193,-3.23055 -17.57584,-6.759946 -4.93831,-3.259007 -9.2291,-7.564016 -12.49521,-12.523671 -3.16649,-4.817339 -5.35103,-10.260873 -6.31876,-15.761327 -0.49099,-2.782245 -0.64041,-4.831572 -0.59061,-8.005178 0.0356,-2.3482 0.12097,-3.444011 0.4056,-5.336794 1.92124,-12.651752 9.64891,-23.987098 20.99138,-30.7897375 4.95254,-2.974363 10.62377,-5.002346 16.25942,-5.813536 2.40512,-0.348675 3.13093,-0.391365 6.333,-0.391365 2.43358,0 3.29457,0.02139 4.19828,0.120965 5.65699,0.619075 10.45299,1.992407 15.29879,4.390398 4.59676,2.269917 8.38233,4.9881285 12.0327,8.6384895 1.66508,1.672194 2.89609,3.073987 4.17692,4.774645 4.49002,5.977209 7.379,12.865226 8.40363,20.030763 0.32022,2.227214 0.3629,2.953024 0.3629,6.048366 -0.008,3.152257 -0.0492,3.828256 -0.39134,6.19067 -2.4549,16.729066 -14.92165,31.067244 -31.52263,36.261753 -3.94211,1.230995 -7.97672,1.906941 -12.06115,2.013691 l -1.70778,0.0428 -0.0214,0.63338 -0.0214,0.63325 1.58681,-0.0427 c 7.10861,-0.20641 13.77604,-1.921248 20.0948,-5.173159 8.09058,-4.155581 14.96437,-10.709166 19.44015,-18.536456 3.21634,-5.635656 5.09492,-11.570163 5.74954,-18.180675 0.15645,-1.56545 0.17781,-5.785076 0.0429,-7.329185 -0.43421,-4.84586 -1.51585,-9.257602 -3.32321,-13.55549 C 211.33792,17.299684 201.89535,8.1346175 190.19,3.5592125 c -3.88519,-1.515648 -8.09057,-2.50473 -12.38849,-2.903213 -1.13139,-0.106733 -5.17312,-0.199241 -6.08393,-0.1352 z"
   id="path121"
   style="fill:#fafafa;fill-opacity:1;stroke:none;stroke-width:0.0071157" /><g
   id="g37375"
   transform="matrix(1.2649071,0,0,1.2649071,-88.288221,-75.512488)"><g
     id="g37118"><rect
       style="fill:#a93f9e;fill-opacity:1;stroke-width:3"
       id="rect1624"
       width="52.073807"
       height="27.123947"
       x="88.838402"
       y="71.975441"
       ry="1.9106698"
       rx="1.9106698" /><rect
       style="fill:#ffc9ef;fill-opacity:1;stroke-width:3.94653"
       id="rect1624-8"
       width="52.073807"
       height="46.93977"
       x="88.838394"
       y="89.063629"
       ry="1.9106698"
       rx="1.9106698" /><path
       id="path36594"
       style="fill:#ff216d;fill-opacity:1;stroke:none;stroke-width:14.916"
       d="m 338.18359,336.91016 c -1.33891,0 -2.41601,1.07709 -2.41601,2.41601 v 172.57617 c 0,1.33892 1.0771,2.41797 2.41601,2.41797 h 147.30469 l 47.09375,-43.48242 V 339.32617 c 0,-1.33892 -1.07905,-2.41601 -2.41797,-2.41601 z"
       transform="scale(0.26458333)" /><circle
       style="fill:#ffffff;fill-opacity:1;stroke-width:2.8152"
       id="path1791"
       cx="99.143898"
       cy="81.236046"
       r="4" /><circle
       style="fill:#ffffff;fill-opacity:1;stroke-width:2.8152"
       id="path1791-1"
       cx="129.42349"
       cy="80.826653"
       r="4" /><text
       xml:space="preserve"
       style="font-size:25.8333px;line-height:48.4387px;font-family:Ani;-inkscape-font-specification:'Ani, Normal';letter-spacing:0px;word-spacing:0px;fill:none;stroke:#000000;stroke-width:1.93751px;stroke-linecap:butt;stroke-linejoin:miter;stroke-opacity:1"
       x="98.877777"
       y="117.12181"
       id="text3098"><tspan
         sodipodi:role="line"
         id="tspan3096"
         style="font-style:normal;font-variant:normal;font-weight:900;font-stretch:normal;font-family:Roboto;-inkscape-font-specification:'Roboto Heavy';fill:#000000;fill-opacity:1;stroke:none;stroke-width:1.93751px"
         x="98.877777"
         y="117.12181">12</tspan></text><path
       style="fill:#ff071a;fill-opacity:1;fill-rule:evenodd;stroke:none;stroke-width:0.292338px;stroke-linecap:butt;stroke-linejoin:miter;stroke-opacity:1"
       d="m 128.09879,136.08049 -0.15759,-11.54193 12.971,-0.11095 z"
       id="path5923"
       sodipodi:nodetypes="cccc" /><path
       style="fill:none;fill-rule:evenodd;stroke:#000000;stroke-width:0.264583px;stroke-linecap:butt;stroke-linejoin:miter;stroke-opacity:1"
       d="M 130.41636,136.08049 Z"
       id="path9962" /></g></g></svg>
