<svg height="61.133" width="52.142" id="svg14" xml:space="preserve" y="0" x="0" version="1.1" xmlns="http://www.w3.org/2000/svg"><text xml:space="preserve" style="-inkscape-font-specification:Arial;letter-spacing:0;word-spacing:0;fill:none;stroke:#000;stroke-width:1px;stroke-linecap:butt;stroke-linejoin:miter;stroke-opacity:1;font-family:Arial;font-size:13.3333px;line-height:25px" x="6.413" y="-50.589" id="text2162"/><g id="g2262" transform="translate(-2.704 -4.809)"><g aria-label="greg" id="text2166" style="-inkscape-font-specification:&quot;Bree Serif, Normal&quot;;letter-spacing:0;word-spacing:0;fill:#fff;stroke-width:1px;font-family:Bree Serif;font-size:13.3333px;line-height:25px"><path d="M21.298 32.424q0-1.302-.54-2.018-.534-.716-1.504-.716-.963 0-1.504.716-.534.716-.534 2.018 0 1.296.534 2.012.54.716 1.504.716.97 0 1.504-.716.54-.716.54-2.012zm1.198 2.826q0 1.861-.827 2.766-.826.912-2.532.912-.632 0-1.192-.098-.56-.09-1.087-.286v-1.166q.528.287 1.042.424.514.136 1.048.136 1.178 0 1.764-.618.586-.612.586-1.856v-.592q-.37.644-.95.963-.58.32-1.387.32-1.341 0-2.161-1.023-.82-1.022-.82-2.708 0-1.693.82-2.715.82-1.022 2.161-1.022.807 0 1.387.319.58.32.95.964v-1.107h1.198z" style="-inkscape-font-specification:&quot;Bree Serif&quot;" id="path827"/><path d="M29.189 29.983q-.202-.118-.443-.17-.234-.058-.52-.058-1.016 0-1.563.664-.54.657-.54 1.894v3.841h-1.205v-7.291h1.205v1.133q.377-.664.983-.983.605-.326 1.47-.326.125 0 .274.02.15.013.332.045z" style="-inkscape-font-specification:&quot;Bree Serif&quot;" id="path829"/><path d="M36.39 32.21v.585h-5.508q.078 1.237.742 1.888.67.645 1.862.645.69 0 1.334-.17.651-.169 1.29-.507v1.132q-.645.274-1.322.417-.677.143-1.374.143-1.745 0-2.767-1.015-1.015-1.016-1.015-2.748 0-1.79.963-2.838.97-1.055 2.61-1.055 1.472 0 2.325.95.86.945.86 2.572zm-1.198-.352q-.014-.983-.554-1.57-.534-.585-1.42-.585-1.002 0-1.607.566-.6.566-.69 1.595z" style="-inkscape-font-specification:&quot;Bree Serif&quot;" id="path831"/><path d="M43.154 32.424q0-1.302-.54-2.018-.534-.716-1.505-.716-.963 0-1.503.716-.534.716-.534 2.018 0 1.296.534 2.012.54.716 1.503.716.97 0 1.504-.716.54-.716.54-2.012zm1.198 2.826q0 1.861-.827 2.766-.827.912-2.533.912-.631 0-1.191-.098-.56-.09-1.087-.286v-1.166q.527.287 1.041.424.515.136 1.048.136 1.179 0 1.765-.618.586-.612.586-1.856v-.592q-.371.644-.95.963-.58.32-1.388.32-1.34 0-2.161-1.023-.82-1.022-.82-2.708 0-1.693.82-2.715.82-1.022 2.161-1.022.808 0 1.387.319.58.32.95.964v-1.107h1.199z" style="-inkscape-font-specification:&quot;Bree Serif&quot;" id="path833"/></g></g></svg>