<svg width="33mm" height="33mm" viewBox="0 0 33 33" version="1.1" id="svg5" xmlns="http://www.w3.org/2000/svg"><g id="layer1" transform="translate(-64.327 -83.175)"><circle style="fill:#000;fill-opacity:1;stroke-width:0" id="path846-1" cx="70.192" cy="99.987" r="16.5"/><path id="rect1329" style="fill:#fff;stroke-width:4.89508px" d="M65.403 83.516a.978.978 0 0 0-.98.98v31.04c0 .542.437.98.98.98h31.039c.543 0 .98-.438.98-.98v-31.04a.978.978 0 0 0-.98-.98zm15.52 1.5a15 15 0 0 1 15 15 15 15 0 0 1-15 15 15 15 0 0 1-15-15 15 15 0 0 1 15-15Z"/><circle style="fill:#fcfcfc;fill-opacity:1;stroke-width:0" id="path846-8" cx="142.877" cy="102.496" r="16.5"/><rect style="fill:#fff;fill-opacity:1;stroke:none;stroke-width:3px;stroke-miterlimit:4;stroke-dasharray:none;stroke-opacity:1" id="rect1444" width="53.75" height="46.918" x="11.653" y="83.516" ry=".639"/><circle style="fill:none;fill-opacity:1;stroke:#000;stroke-width:3px;stroke-miterlimit:4;stroke-dasharray:none;stroke-opacity:1" id="path846-4" cx="81.357" cy="99.675" r="15"/></g></svg>