<?xml version="1.0" encoding="UTF-8" standalone="no"?>
<svg
   height="61.133114"
   width="52.141792"
   id="svg14"
   xml:space="preserve"
   enable-background="new 0 0 1000 1000"
   viewBox="0 0 52.141792 61.133114"
   y="0px"
   x="0px"
   version="1.1"
   sodipodi:docname="intro.svg"
   inkscape:version="1.1.2 (0a00cf5339, 2022-02-04)"
   inkscape:export-filename="/home/strukturart/Desktop/Pages/rss-reader/images/logo.png"
   inkscape:export-xdpi="171.42857"
   inkscape:export-ydpi="171.42857"
   xmlns:inkscape="http://www.inkscape.org/namespaces/inkscape"
   xmlns:sodipodi="http://sodipodi.sourceforge.net/DTD/sodipodi-0.dtd"
   xmlns="http://www.w3.org/2000/svg"
   xmlns:svg="http://www.w3.org/2000/svg"
   xmlns:rdf="http://www.w3.org/1999/02/22-rdf-syntax-ns#"
   xmlns:cc="http://creativecommons.org/ns#"
   xmlns:dc="http://purl.org/dc/elements/1.1/"><sodipodi:namedview
   pagecolor="#000000"
   bordercolor="#666666"
   borderopacity="1"
   objecttolerance="10"
   gridtolerance="10"
   guidetolerance="10"
   inkscape:pageopacity="0"
   inkscape:pageshadow="2"
   inkscape:window-width="1920"
   inkscape:window-height="1016"
   id="namedview10"
   showgrid="false"
   inkscape:zoom="3.0518016"
   inkscape:cx="15.564577"
   inkscape:cy="33.586718"
   inkscape:window-x="0"
   inkscape:window-y="0"
   inkscape:window-maximized="1"
   inkscape:current-layer="g2262"
   inkscape:document-rotation="0"
   inkscape:pagecheckerboard="false"
   fit-margin-top="0"
   fit-margin-left="0"
   fit-margin-right="0"
   fit-margin-bottom="0" /><defs
   id="defs18" />
<metadata
   id="metadata2"> Svg Vector Icons : http://www.onlinewebfonts.com/icon <rdf:RDF><cc:Work
     rdf:about=""><dc:format>image/svg+xml</dc:format><dc:type
       rdf:resource="http://purl.org/dc/dcmitype/StillImage" /></cc:Work></rdf:RDF></metadata>

<text
   xml:space="preserve"
   style="font-size:13.3333px;line-height:25px;font-family:Arial;-inkscape-font-specification:Arial;letter-spacing:0px;word-spacing:0px;fill:none;stroke:#000000;stroke-width:1px;stroke-linecap:butt;stroke-linejoin:miter;stroke-opacity:1"
   x="6.4129987"
   y="-50.58881"
   id="text2162"><tspan
     sodipodi:role="line"
     id="tspan2160"
     x="6.4129987"
     y="-50.58881" /></text><g
   inkscape:groupmode="layer"
   id="layer1"
   inkscape:label="Layer 1"
   transform="translate(-1.9291032,-4.8085106)" /><g
   id="g2262"
   transform="translate(-2.7035756,-4.8085106)"><g
     aria-label="greg"
     id="text2166"
     style="font-size:13.3333px;line-height:25px;font-family:'Bree Serif';-inkscape-font-specification:'Bree Serif, Normal';letter-spacing:0px;word-spacing:0px;fill:#ffffff;stroke-width:1px"><path
       d="m 21.298319,32.424005 q 0,-1.30208 -0.540363,-2.018224 -0.533853,-0.716144 -1.503903,-0.716144 -0.963539,0 -1.503902,0.716144 -0.533853,0.716144 -0.533853,2.018224 0,1.29557 0.533853,2.011714 0.540363,0.716144 1.503902,0.716144 0.97005,0 1.503903,-0.716144 0.540363,-0.716144 0.540363,-2.011714 z m 1.197913,2.825514 q 0,1.861975 -0.82682,2.76692 -0.826821,0.911456 -2.532546,0.911456 -0.631509,0 -1.191403,-0.09766 -0.559895,-0.09114 -1.087237,-0.286457 V 37.37842 q 0.527342,0.286458 1.041664,0.423176 0.514322,0.136718 1.048174,0.136718 1.178383,0 1.764319,-0.618488 0.585936,-0.611977 0.585936,-1.855464 v -0.592446 q -0.371093,0.64453 -0.950519,0.963539 -0.579425,0.31901 -1.386715,0.31901 -1.341142,0 -2.161453,-1.022133 -0.82031,-1.022133 -0.82031,-2.708327 0,-1.692704 0.82031,-2.714836 0.820311,-1.022133 2.161453,-1.022133 0.80729,0 1.386715,0.319009 0.579426,0.31901 0.950519,0.96354 v -1.106769 h 1.197913 z"
       style="-inkscape-font-specification:'Bree Serif'"
       id="path827" /><path
       d="m 29.188924,29.982605 q -0.201823,-0.117187 -0.442708,-0.16927 -0.234374,-0.05859 -0.520832,-0.05859 -1.015622,0 -1.562496,0.664061 -0.540363,0.657551 -0.540363,1.894527 v 3.841136 h -1.204424 v -7.291649 h 1.204424 v 1.13281 q 0.377603,-0.664061 0.983071,-0.98307 0.605467,-0.32552 1.47135,-0.32552 0.123698,0 0.273437,0.01953 0.149739,0.01302 0.33203,0.04557 z"
       style="-inkscape-font-specification:'Bree Serif'"
       id="path829" /><path
       d="m 36.389427,32.209162 v 0.585936 h -5.507799 q 0.07813,1.236976 0.742186,1.888016 0.670571,0.64453 1.861974,0.64453 0.690103,0 1.334632,-0.169271 0.65104,-0.16927 1.289059,-0.507811 v 1.13281 q -0.644529,0.273437 -1.321611,0.416666 -0.677081,0.143228 -1.373694,0.143228 -1.744787,0 -2.76692,-1.015622 -1.015623,-1.015623 -1.015623,-2.747389 0,-1.79036 0.963539,-2.838534 0.97005,-1.054685 2.610671,-1.054685 1.47135,0 2.324213,0.950518 0.859373,0.944008 0.859373,2.571608 z m -1.197914,-0.351561 q -0.01302,-0.983071 -0.553384,-1.569007 -0.533853,-0.585936 -1.419267,-0.585936 -1.002602,0 -1.608069,0.566405 -0.598957,0.566405 -0.690102,1.595048 z"
       style="-inkscape-font-specification:'Bree Serif'"
       id="path831" /><path
       d="m 43.153732,32.424005 q 0,-1.30208 -0.540363,-2.018224 -0.533853,-0.716144 -1.503902,-0.716144 -0.96354,0 -1.503903,0.716144 -0.533853,0.716144 -0.533853,2.018224 0,1.29557 0.533853,2.011714 0.540363,0.716144 1.503903,0.716144 0.970049,0 1.503902,-0.716144 0.540363,-0.716144 0.540363,-2.011714 z m 1.197914,2.825514 q 0,1.861975 -0.826821,2.76692 -0.826821,0.911456 -2.532546,0.911456 -0.631508,0 -1.191403,-0.09766 -0.559894,-0.09114 -1.087237,-0.286457 V 37.37842 q 0.527343,0.286458 1.041664,0.423176 0.514322,0.136718 1.048175,0.136718 1.178382,0 1.764318,-0.618488 0.585936,-0.611977 0.585936,-1.855464 v -0.592446 q -0.371093,0.64453 -0.950518,0.963539 -0.579426,0.31901 -1.386715,0.31901 -1.341143,0 -2.161453,-1.022133 -0.820311,-1.022133 -0.820311,-2.708327 0,-1.692704 0.820311,-2.714836 0.82031,-1.022133 2.161453,-1.022133 0.807289,0 1.386715,0.319009 0.579425,0.31901 0.950518,0.96354 v -1.106769 h 1.197914 z"
       style="-inkscape-font-specification:'Bree Serif'"
       id="path833" /></g></g></svg>
